<?xml version="1.0" encoding="UTF-8" standalone="no"?><svg xmlns:rdf="http://www.w3.org/1999/02/22-rdf-syntax-ns#" xmlns="http://www.w3.org/2000/svg" enable-background="new 0 0 512 512" xml:space="preserve" height="512px" width="512px" version="1.1" y="0px" x="0px" xmlns:cc="http://creativecommons.org/ns#" xmlns:dc="http://purl.org/dc/elements/1.1/" viewBox="0 0 512 512"><metadata><rdf:RDF><cc:Work rdf:about=""><dc:format>image/svg+xml</dc:format><dc:type rdf:resource="http://purl.org/dc/dcmitype/StillImage"/><dc:title/></cc:Work></rdf:RDF></metadata>
<path d="M153.42,256c0,28.558-23.15,51.708-51.707,51.708-28.56,0-51.71-23.15-51.71-51.71s23.15-51.708,51.708-51.708c28.55,0,51.71,23.15,51.71,51.71zm102.58-51.71c-28.558,0-51.708,23.15-51.708,51.708s23.15,51.708,51.708,51.708,51.708-23.15,51.708-51.708-23.15-51.71-51.71-51.71zm154.29,0c-28.557,0-51.707,23.15-51.707,51.708s23.15,51.708,51.707,51.708c28.56,0,51.71-23.15,51.71-51.71s-23.15-51.71-51.71-51.71z"/>
</svg>
