<?xml version="1.0" encoding="UTF-8" standalone="no"?><svg xmlns:rdf="http://www.w3.org/1999/02/22-rdf-syntax-ns#" xmlns="http://www.w3.org/2000/svg" enable-background="new 0 0 512 512" xml:space="preserve" height="512px" width="512px" version="1.1" y="0px" x="0px" xmlns:cc="http://creativecommons.org/ns#" xmlns:dc="http://purl.org/dc/elements/1.1/" viewBox="0 0 512 512"><metadata><rdf:RDF><cc:Work rdf:about=""><dc:format>image/svg+xml</dc:format><dc:type rdf:resource="http://purl.org/dc/dcmitype/StillImage"/><dc:title/></cc:Work></rdf:RDF></metadata>
<path d="M333.81,247.68v-38.223l-20.652-7.344c-7.875-2.799-14.211-8.814-17.41-16.535-0.002-0.002-0.004-0.006-0.004-0.01-3.211-7.738-2.986-16.475,0.609-24.041l9.408-19.788-27.029-27.027-19.783,9.404c-7.562,3.596-16.312,3.822-24.047,0.615-0.004-0.004-0.008-0.004-0.01-0.004-7.727-3.203-13.73-9.531-16.533-17.412l-7.344-20.654h-38.223l-7.346,20.654c-2.801,7.873-8.812,14.211-16.532,17.412-0.002,0-0.006,0.002-0.01,0.004-7.74,3.209-16.477,2.984-24.045-0.613l-19.785-9.406-27.051,27.04,9.406,19.784c3.596,7.562,3.82,16.312,0.613,24.049-0.002,0.002-0.002,0.004-0.006,0.01-3.201,7.723-9.529,13.729-17.408,16.531l-20.654,7.35v38.223l20.654,7.344c7.873,2.801,14.209,8.814,17.41,16.533,0.002,0.004,0.002,0.008,0.004,0.01,3.209,7.74,2.984,16.477-0.611,24.045l-9.408,19.787,27.029,27.025,19.785-9.402c7.562-3.596,16.312-3.82,24.049-0.613,0.002,0.002,0.006,0.004,0.008,0.004,7.724,3.203,13.728,9.527,16.53,17.408l7.346,20.653h38.223l7.299-20.521c2.824-7.947,8.891-14.344,16.678-17.582,0.004-0.002,0.008-0.002,0.012-0.004,7.666-3.189,16.32-2.969,23.818,0.594l19.91,9.463,27.029-27.025-9.412-19.799c-3.592-7.555-3.814-16.295-0.609-24.023,0.002-0.004,0.004-0.006,0.004-0.01,3.207-7.732,9.539-13.742,17.426-16.547l20.63-7.34zm-141.9,32.93c-28.742,0-52.042-23.301-52.042-52.041,0-28.742,23.3-52.043,52.042-52.043,28.74,0,52.041,23.301,52.041,52.043,0,28.74-23.3,52.04-52.04,52.04zm270.09,79.45v-20.32l-10.979-3.902c-4.188-1.488-7.557-4.688-9.258-8.791-0.002,0-0.002-0.002-0.002-0.004-1.707-4.115-1.586-8.76,0.326-12.783l5-10.52-14.369-14.367-10.518,5c-4.02,1.91-8.67,2.031-12.783,0.326h-0.006c-4.105-1.705-7.299-5.068-8.787-9.258l-3.904-10.98h-20.32l-3.904,10.98c-1.49,4.186-4.686,7.555-8.789,9.258h-0.006c-4.112,1.705-8.757,1.586-12.78-0.326l-10.52-5-14.369,14.367,5.002,10.52c1.91,4.02,2.029,8.672,0.324,12.783,0,0.002,0,0.004-0.002,0.006-1.701,4.107-5.066,7.299-9.254,8.789l-10.98,3.902v20.32l10.98,3.903c4.186,1.488,7.555,4.684,9.254,8.789,0.002,0.002,0.002,0.004,0.002,0.006,1.707,4.113,1.588,8.758-0.324,12.781l-5.002,10.52,14.369,14.367,10.52-4.998c4.02-1.912,8.67-2.031,12.782-0.326,0.002,0,0.002,0.002,0.004,0.002,4.107,1.701,7.297,5.064,8.789,9.252l3.904,10.982h20.32l3.879-10.91c1.502-4.225,4.727-7.625,8.867-9.348,0.002,0,0.004-0.002,0.006-0.002,4.074-1.695,8.676-1.578,12.662,0.316l10.584,5.031,14.369-14.367-5.002-10.525c-1.91-4.018-2.029-8.664-0.326-12.771,0-0.002,0.002-0.004,0.002-0.004,1.707-4.111,5.072-7.307,9.264-8.799l10.99-3.91zm-75.44,17.5c-15.279,0-27.665-12.387-27.665-27.665,0-15.279,12.386-27.666,27.665-27.666s27.666,12.387,27.666,27.666c0,15.28-12.39,27.66-27.67,27.66z"/>
</svg>
