<?xml version="1.0" encoding="UTF-8" standalone="no"?><svg xmlns:rdf="http://www.w3.org/1999/02/22-rdf-syntax-ns#" xmlns="http://www.w3.org/2000/svg" xml:space="preserve" height="512" width="512" version="1.1" xmlns:cc="http://creativecommons.org/ns#" xmlns:dc="http://purl.org/dc/elements/1.1/" viewBox="0 0 512 512"><metadata><rdf:RDF><cc:Work rdf:about=""><dc:format>image/svg+xml</dc:format><dc:type rdf:resource="http://purl.org/dc/dcmitype/StillImage"/><dc:title/></cc:Work></rdf:RDF></metadata>
<path d="m462,218.12h-25.804c-5.604,0-25.814-3.535-33.274-23.529-7.459-19.993,3.027-34.632,7.419-39.024,3.11-3.11,18.252-18.247,18.252-18.247l-53.86-53.906s-14.298,14.301-18.259,18.26c-3.962,3.963-20.53,15.821-39.944,6.96-19.409-8.862-22.156-26.596-22.156-32.807v-25.826h-77.04v25.812c0,5.603-3.124,25.815-23.117,33.273-19.994,7.458-34.423-3.025-38.812-7.417-0.01-0.007-18.165-18.261-18.165-18.261l-54.102,53.856,18.139,18.373c5.705,5.765,15.851,20.59,7.021,39.925-8.839,19.365-26.372,21.891-32.618,21.904-0.004,0.017-25.685,0-25.685,0v77.69h25.804c5.604,0,25.551,2.9,33.009,22.891,7.458,19.997-2.703,33.704-7.437,38.396l-18.233,18.382,54.086,53.797s14.327-14.307,18.29-18.27c3.962-3.962,20.392-15.835,39.803-6.97,19.414,8.86,22.019,26.577,22.019,32.788v25.829h77.037v-25.812c0-5.604,3.267-25.816,23.261-33.274,19.991-7.458,34.493,3.026,38.884,7.419,0.005,0.004-0.003,0.008-0.01,0.012l18.235,18.249,53.971-53.856-18.132-18.252c-3.917-4.05-15.858-20.715-7.031-40.047,8.842-19.366,26.443-21.92,32.694-21.936,0.002-0.014,25.751,0,25.751,0v-76.382zm-205.99,113.92c-42.005,0-76.049-34.043-76.049-76.042,0-41.994,34.044-76.042,76.049-76.042,41.994,0,76.036,34.048,76.036,76.042,0,41.999-34.042,76.042-76.036,76.042z"/>
</svg>
