<?xml version="1.0" encoding="UTF-8" standalone="no"?>
<svg xmlns:rdf="http://www.w3.org/1999/02/22-rdf-syntax-ns#" xmlns="http://www.w3.org/2000/svg" enable-background="new 0 0 512 512" xml:space="preserve" height="512px" width="512px" version="1.1" y="0px" x="0px" xmlns:cc="http://creativecommons.org/ns#" xmlns:dc="http://purl.org/dc/elements/1.1/" viewBox="0 0 512 512"><metadata><rdf:RDF><cc:Work rdf:about=""><dc:format>image/svg+xml</dc:format><dc:type rdf:resource="http://purl.org/dc/dcmitype/StillImage"/><dc:title/></cc:Work></rdf:RDF></metadata>
<path d="M226.5,363.92l-29.6-117.79-20.778,64.322c-2.808,8.692-14.909,9.365-18.645,1.008l-19.977-44.682-12.85,17.877c-1.879,2.614-4.901,4.164-8.12,4.164h-66.53v-20h61.399l20.008-27.836c4.481-6.239,14.096-5.298,17.249,1.754l16.44,36.771,23.486-72.705c3.069-9.5,16.767-9.105,19.214,0.637l26.301,104.67,26.561-163.23c1.75-10.763,17.197-11.339,19.625-0.596l30.817,136.52,21.115-53.96c3.253-8.314,14.971-8.527,18.502-0.3l25.419,59.223,12.318-16.849c1.883-2.575,4.882-4.098,8.072-4.098h65.47v20h-60.396l-19.67,26.902c-4.575,6.257-14.215,5.138-17.262-1.958l-22.717-52.928-24.115,61.628c-3.592,9.173-16.906,8.13-19.067-1.442l-26.65-118.06-26.058,160.13c-1.73,10.7-16.91,11.4-19.56,0.84z"/>
</svg>
