<?xml version="1.0" encoding="UTF-8" standalone="no"?><svg xmlns:rdf="http://www.w3.org/1999/02/22-rdf-syntax-ns#" xmlns="http://www.w3.org/2000/svg" xml:space="preserve" height="512" width="512" version="1.1" xmlns:cc="http://creativecommons.org/ns#" xmlns:dc="http://purl.org/dc/elements/1.1/" viewBox="0 0 512 512"><metadata><rdf:RDF><cc:Work rdf:about=""><dc:format>image/svg+xml</dc:format><dc:type rdf:resource="http://purl.org/dc/dcmitype/StillImage"/><dc:title/></cc:Work></rdf:RDF></metadata>
<path d="m366.46,150.48c-49.843,0-82.439,40.392-111.63,70.96-29.18-30.57-59.45-70.96-109.29-70.96-56.907,0-95.54,45.37-95.54,105.52,0,60.154,38.633,105.52,95.536,105.52,50.493,0,82.883-39.396,111.83-69.118,28.947,29.722,58.604,69.118,109.1,69.118,56.9,0,95.53-45.37,95.53-105.52s-38.63-105.52-95.54-105.52zm-220.92,168.26c-33.875,0-54.185-25.56-54.185-62.74,0-37.181,20.31-62.74,54.185-62.74,35.136,0,56.352,31.601,84.572,65.414-25.845,30.59-48.334,60.066-84.572,60.066zm220.93,0c-36.238,0-58.523-32.743-84.368-63.333,28.22-33.812,49.232-62.147,84.368-62.147,33.875,0,54.185,25.559,54.185,62.74-0.001,37.181-20.31,62.74-54.185,62.74z"/>
</svg>
