<?xml version="1.0" encoding="UTF-8" standalone="no"?><svg xmlns:rdf="http://www.w3.org/1999/02/22-rdf-syntax-ns#" xmlns="http://www.w3.org/2000/svg" enable-background="new 0 0 512 512" xml:space="preserve" height="512px" width="512px" version="1.1" y="0px" x="0px" xmlns:cc="http://creativecommons.org/ns#" xmlns:dc="http://purl.org/dc/elements/1.1/" viewBox="0 0 512 512"><metadata><rdf:RDF><cc:Work rdf:about=""><dc:format>image/svg+xml</dc:format><dc:type rdf:resource="http://purl.org/dc/dcmitype/StillImage"/><dc:title/></cc:Work></rdf:RDF></metadata>
<path d="M303.5,92.984c0,22.092-17.908,40-40,40s-40-17.908-40-40,17.908-40,40-40,40,17.913,40,40.004zm-40,296.04c-19.33,0-35,15.67-35,35s15.67,35,35,35,35-15.67,35-35-15.67-35-35-35zm165.52-105.52c-13.808,0-25-11.192-25-25s11.192-25,25-25,25,11.192,25,25-11.2,25-25,25zm-291.04-25c0-22.092-17.908-40-40-40s-40,17.908-40,40,17.908,40,40,40,40-17.91,40-40zm36.77-145.32c15.621,15.621,15.621,40.947,0,56.568-15.622,15.621-40.948,15.621-56.569,0-15.622-15.621-15.622-40.947,0-56.569,15.62-15.623,40.95-15.623,56.57,0zm184.57,241.14c-11.717,11.716-11.717,30.71-0.001,42.426s30.71,11.716,42.427,0c11.716-11.716,11.716-30.71,0-42.426s-30.71-11.71-42.43,0zm35.36-198.72c-7.811,7.81-20.475,7.81-28.285,0-7.811-7.812-7.811-20.475,0-28.284,7.811-7.812,20.474-7.812,28.285,0,7.81,7.81,7.81,20.48,0,28.28zm-219.93,191.65c-15.622-15.622-40.947-15.621-56.569,0-15.621,15.621-15.622,40.947,0,56.568,15.621,15.621,40.947,15.621,56.568,0,15.62-15.62,15.62-40.95,0-56.57z"/>
</svg>
