<?xml version="1.0" encoding="UTF-8" standalone="no"?><svg xmlns:rdf="http://www.w3.org/1999/02/22-rdf-syntax-ns#" xmlns="http://www.w3.org/2000/svg" enable-background="new 0 0 512 512" xml:space="preserve" height="512px" width="512px" version="1.1" y="0px" x="0px" xmlns:cc="http://creativecommons.org/ns#" xmlns:dc="http://purl.org/dc/elements/1.1/" viewBox="0 0 512 512"><metadata><rdf:RDF><cc:Work rdf:about=""><dc:format>image/svg+xml</dc:format><dc:type rdf:resource="http://purl.org/dc/dcmitype/StillImage"/><dc:title/></cc:Work></rdf:RDF></metadata>
<path d="M356.81,171.82c-15.021,0-29.121,3.938-41.329,10.834-8.066,4.557-17.998,4.275-25.799-0.721l-87.311-55.909c-6.749-4.322-11.013-11.62-11.479-19.621-1.81-31.135-27.68-56.4-59.89-56.4-33.137,0-60,26.863-60,60,0,42.486,42.832,71.156,81.814,55.898,7.459-2.919,15.866-2.083,22.612,2.236l75.168,48.134c13.644,8.737,21.974,23.859,22.036,40.06v0.012c0.062,15.71-7.933,30.359-21.163,38.831l-76.042,48.693c-6.735,4.313-15.163,5.151-22.611,2.236-39.04-15.27-81.82,13.47-81.82,55.9,0,33.137,26.863,60,60,60,32.186,0,58.085-25.241,59.897-56.397,0.464-7.988,4.74-15.307,11.479-19.622l87.31-55.909c7.793-4.99,17.741-5.272,25.799-0.721,12.208,6.896,26.308,10.835,41.329,10.835,46.49,0.01,84.18-37.69,84.18-84.18s-37.69-84.18-84.19-84.18z"/>
</svg>
