<?xml version="1.0" encoding="UTF-8" standalone="no"?><svg xmlns:rdf="http://www.w3.org/1999/02/22-rdf-syntax-ns#" xmlns="http://www.w3.org/2000/svg" enable-background="new 0 0 512 512" xml:space="preserve" height="512px" width="512px" version="1.1" y="0px" x="0px" xmlns:cc="http://creativecommons.org/ns#" xmlns:dc="http://purl.org/dc/elements/1.1/" viewBox="0 0 512 512"><metadata><rdf:RDF><cc:Work rdf:about=""><dc:format>image/svg+xml</dc:format><dc:type rdf:resource="http://purl.org/dc/dcmitype/StillImage"/><dc:title/></cc:Work></rdf:RDF></metadata>
<path d="M230.18,107.52c0,31.488-25.526,57.015-57.019,57.015-31.482,0-57.009-25.526-57.009-57.015,0-31.491,25.526-57.018,57.009-57.018,31.49,0,57.02,25.526,57.02,57.018zm-57.02,239.94c-31.493,0-57.019,25.534-57.019,57.019,0,31.492,25.525,57.018,57.019,57.018,31.492,0,57.019-25.525,57.019-57.018,0-31.48-25.52-57.02-57.02-57.02zm86.97-237.18c45.523,4.372,85.009,29.728,108.64,66.257,17.059-7.84,35.991-9.792,53.821-6.112-31.763-65.529-98.955-110.82-176.53-110.82-0.101,0-0.201,0.004-0.302,0.004,9.69,14.622,14.94,32.088,14.37,50.666zm-137.48,223.38c-30.088-47.424-30.214-108-0.304-155.55-14.402-10.396-25.509-25.085-31.429-42.177-54.611,70.611-54.564,169.08,0.169,239.64,6.004-17,17.15-31.59,31.56-41.91zm246.12,1.09c-23.636,36.538-63.13,61.896-108.66,66.263,0.718,18.387-4.28,35.872-13.879,50.675,77.506-0.066,144.62-45.342,176.36-110.83-17.78,3.68-36.71,1.77-53.82-6.1zm36.21-136.12c-31.483,0-57.01,25.525-57.01,57.014,0,31.487,25.526,57.013,57.01,57.013,31.491,0,57.018-25.525,57.018-57.013,0-31.48-25.53-57.01-57.02-57.01z"/>
</svg>
