<?xml version="1.0" encoding="UTF-8" standalone="no"?>
<svg xmlns:rdf="http://www.w3.org/1999/02/22-rdf-syntax-ns#" xmlns="http://www.w3.org/2000/svg" enable-background="new 0 0 512 512" xml:space="preserve" height="512px" width="512px" version="1.1" y="0px" x="0px" xmlns:cc="http://creativecommons.org/ns#" xmlns:dc="http://purl.org/dc/elements/1.1/" viewBox="0 0 512 512"><metadata><rdf:RDF><cc:Work rdf:about=""><dc:format>image/svg+xml</dc:format><dc:type rdf:resource="http://purl.org/dc/dcmitype/StillImage"/><dc:title/></cc:Work></rdf:RDF></metadata>
<path d="M456.36,217.15l-53.111,98.847-13.448-32.978c-71.05,36.94-92.2,92.39-96.5,178.98h-71.764c5.17-110.04,34.897-192.98,141.1-245.6l-13.587-33.318,107.31,34.07zm-235.71,7.23c13.368,10.646,25.29,22.229,35.857,34.786,10.568-12.562,22.508-24.14,35.879-34.79v-86.104l35.903,0.025-70.95-88.3-72.602,88.193,35.907,0.025v86.157zm6.27,79.1c3.346-6.436,6.94-12.671,10.786-18.712-20.825-26.611-49.125-49.452-87.312-68.373l13.588-33.318-108.35,33.04,54.137,99.872,13.448-32.978c41.252,21.449,65.68,49.139,79.759,85.534,5.86-24.08,13.78-45.52,23.94-65.06z"/>
</svg>
