<?xml version="1.0" encoding="UTF-8" standalone="no"?><svg xmlns:rdf="http://www.w3.org/1999/02/22-rdf-syntax-ns#" xmlns="http://www.w3.org/2000/svg" enable-background="new 0 0 512 512" xml:space="preserve" height="512px" width="512px" version="1.1" y="0px" x="0px" xmlns:cc="http://creativecommons.org/ns#" xmlns:dc="http://purl.org/dc/elements/1.1/" viewBox="0 0 512 512"><metadata><rdf:RDF><cc:Work rdf:about=""><dc:format>image/svg+xml</dc:format><dc:type rdf:resource="http://purl.org/dc/dcmitype/StillImage"/><dc:title/></cc:Work></rdf:RDF></metadata>
<path d="M423.44,253.5c-11.25,0-16.857-21.833-20.859-34.878-5.379-17.535-11.805-41.455-30.141-41.455-31.549,0-25.996,89.323-42.756,130.04-0.824,2.007-3.686,1.965-4.457-0.06-15.438-40.575-13.779-129.98-45.287-129.98-32.223,0-30.102,84.645-45.416,128.47-0.744,2.127-3.758,2.136-4.52,0.02-15.15-42.056-13.406-128.48-45.064-128.48-33.836,0-29.883,90.229-45.189,129.57-0.795,2.039-3.693,2.031-4.475-0.016-9.94-26.07-13.66-72.72-43.324-72.72h-41.93v21h32.93c9.369,0,12.508,1.812,15.871,8.672,12.705,25.921,14.357,71.161,38.129,71.161,34.176,0,30.939-88.388,45.385-128.83,0.754-2.117,3.768-2.115,4.518,0.009,15.326,43.351,13.225,128.82,45.598,128.82,31.514,0,30.049-85.439,44.924-127.93,0.758-2.16,3.816-2.124,4.537,0.028,14.928,44.47,13.307,127.9,44.955,127.9,33.947,0,31.734-85.284,44.805-128.58,0.652-2.16,3.668-2.296,4.516-0.21,10.014,24.59,15.059,68.458,44.264,68.458,19.617,0,41.342-0.005,41.559,0v-21h-38.56z"/>
</svg>
