<?xml version="1.0" encoding="UTF-8" standalone="no"?><svg xmlns:rdf="http://www.w3.org/1999/02/22-rdf-syntax-ns#" xmlns="http://www.w3.org/2000/svg" enable-background="new 0 0 512 512" xml:space="preserve" height="512px" width="512px" version="1.1" y="0px" x="0px" xmlns:cc="http://creativecommons.org/ns#" xmlns:dc="http://purl.org/dc/elements/1.1/" viewBox="0 0 512 512"><metadata><rdf:RDF><cc:Work rdf:about=""><dc:format>image/svg+xml</dc:format><dc:type rdf:resource="http://purl.org/dc/dcmitype/StillImage"/><dc:title/></cc:Work></rdf:RDF></metadata>
<path d="M256,90c44.338,0,86.024,17.268,117.38,48.622,31.35,31.36,48.62,73.04,48.62,117.38,0,44.341-17.268,86.027-48.621,117.38-31.36,31.35-73.04,48.62-117.38,48.62s-86.025-17.267-117.38-48.619c-31.35-31.35-48.62-73.04-48.62-117.38,0-44.338,17.268-86.024,48.622-117.38,31.36-31.35,73.04-48.62,117.38-48.62m0-40c-113.77,0-206,92.23-206,206s92.233,206,206,206,206-92.226,206-206c0-113.77-92.23-206-206-206zm0,121.16c46.778,0,84.836,38.058,84.836,84.836s-38.058,84.835-84.836,84.835-84.84-38.06-84.84-84.84c0-46.78,38.06-84.84,84.84-84.84m0-40c-68.942,0-124.84,55.894-124.84,124.84,0,68.947,55.893,124.84,124.84,124.84s124.84-55.89,124.84-124.84c0-68.94-55.9-124.84-124.84-124.84zm0,79.34c-24.3,0-44,19.699-44,44,0,24.299,19.7,44,44,44,24.299,0,44-19.701,44-44,0-24.3-19.7-44-44-44z"/>
</svg>
