<?xml version="1.0" encoding="UTF-8" standalone="no"?><svg xmlns:rdf="http://www.w3.org/1999/02/22-rdf-syntax-ns#" xmlns="http://www.w3.org/2000/svg" version="1.0" height="128" width="128" enable-background="new" xmlns:cc="http://creativecommons.org/ns#" xmlns:xlink="http://www.w3.org/1999/xlink" xmlns:dc="http://purl.org/dc/elements/1.1/"><defs><linearGradient id="linearGradient3436"><stop stop-color="#FFF" offset="0"/><stop stop-color="#FFF" stop-opacity="0" offset="1"/></linearGradient><radialGradient id="radialGradient2954" fy="108.22" gradientUnits="userSpaceOnUse" cy="85.874" cx="54.538" gradientTransform="matrix(0.8464424,0,0,0.6348316,8.4693722,28.372944)" r="48"><stop stop-color="#9abcee" offset="0"/><stop stop-color="#092042" offset="1"/></radialGradient><linearGradient id="linearGradient2962" y2="30.849" gradientUnits="userSpaceOnUse" y1="103.9" gradientTransform="translate(0,4)" x2="89.091" x1="89.091"><stop stop-color="#0c1f39" offset="0"/><stop stop-color="#204d90" offset="1"/></linearGradient><linearGradient id="linearGradient2977" y2="89.995" gradientUnits="userSpaceOnUse" y1="24.062" gradientTransform="translate(-2.3931686e-5,4)" x2="83.325" x1="83.325"><stop stop-color="#c2e2f4" offset="0"/><stop stop-color="#c0e0f2" stop-opacity="0" offset="1"/></linearGradient><radialGradient id="radialGradient2987" fx="53.16" fy="87.081" gradientUnits="userSpaceOnUse" cy="95.459" cx="52.792" gradientTransform="matrix(1.0122143,7.8518053e-2,-7.0968649e-2,0.9148913,7.5716186,-3.7388379)" r="52"><stop stop-color="#001400" offset="0"/><stop stop-color="#001400" stop-opacity="0" offset="1"/></radialGradient><radialGradient id="radialGradient3004" xlink:href="#linearGradient3436" gradientUnits="userSpaceOnUse" cy="29.375" cx="99.766" gradientTransform="matrix(1.9646726,3.4242959e-7,-1.0414508e-6,5.9752716,-96.241137,-146.14811)" r="3.0156"/><radialGradient id="radialGradient3288" xlink:href="#linearGradient3436" gradientUnits="userSpaceOnUse" cy="29.375" cx="99.766" gradientTransform="matrix(1.9646726,3.4242959e-7,-1.0414508e-6,5.9752716,-167.24116,-126.14811)" r="3.0156"/><linearGradient id="linearGradient3421" y2="47.379" gradientUnits="userSpaceOnUse" y1="96.884" x2="71.604" x1="71.604"><stop stop-color="#a8dde0" offset="0"/><stop stop-color="#a8dde0" stop-opacity="0.20571429" offset="1"/></linearGradient><filter id="filter3423"><feGaussianBlur stdDeviation="0.425"/></filter><linearGradient id="linearGradient3442" y2="46.277" xlink:href="#linearGradient3436" gradientUnits="userSpaceOnUse" y1="74.839" x2="77.138" x1="87.533"/><linearGradient id="linearGradient3453" y2="69.838" xlink:href="#linearGradient3436" gradientUnits="userSpaceOnUse" y1="24.062" gradientTransform="translate(0,4)" x2="83.325" x1="83.325"/><radialGradient id="radialGradient3457" gradientUnits="userSpaceOnUse" cy="29.375" cx="99.766" gradientTransform="matrix(1.9646726,3.4242959e-7,-1.0414508e-6,5.9752716,-167.24116,-126.14811)" r="3.0156"><stop stop-color="#00c4cc" offset="0"/><stop stop-color="#00c4cc" stop-opacity="0" offset="1"/></radialGradient><filter id="filter3505"><feGaussianBlur stdDeviation="0.4605"/></filter><radialGradient id="radialGradient3511" xlink:href="#linearGradient3436" gradientUnits="userSpaceOnUse" cy="51.92" cx="53.633" gradientTransform="matrix(1.0961401,8.7912098e-2,-0.1002304,1.2497316,1.0599334,-18.687387)" r="52"/><filter id="filter3521"><feBlend in2="BackgroundImage" mode="lighten"/></filter><filter id="filter3525" height="1.2057828" width="1.3646584" y="-0.10289138" x="-0.18232919"><feGaussianBlur stdDeviation="0.45819706"/></filter><filter id="filter3529" height="1.2057828" width="1.3646584" y="-0.10289138" x="-0.18232919"><feGaussianBlur stdDeviation="0.45819706"/></filter><filter id="filter3533" height="1.3702595" width="1.2076595" y="-0.18512974" x="-0.10382974"><feGaussianBlur stdDeviation="0.45819702"/></filter><filter id="filter3537" height="1.2057828" width="1.3646584" y="-0.10289138" x="-0.18232919"><feGaussianBlur stdDeviation="0.45819706"/></filter><filter id="filter3541" height="1.3702595" width="1.2076595" y="-0.18512974" x="-0.10382974"><feGaussianBlur stdDeviation="0.45819702"/></filter></defs><g><g transform="translate(2.3931686e-5,0)"><path stroke-linejoin="round" d="M54.394,74.154c-8.148-8.35-25.763-26.404-25.763-26.404l-12.631,12.948,38.394,39.352,57.606-59.05-12.633-12.947s-35.262,36.147-44.973,46.101z" filter="url(#filter3505)" stroke="#081c39" stroke-linecap="round" stroke-miterlimit="4" stroke-dasharray="none" stroke-width="8.09999999999999964" fill="none"/><path stroke-linejoin="round" d="M54.394,74.154c-8.148-8.35-25.763-26.404-25.763-26.404l-12.631,12.948,38.394,39.352,57.606-59.05-12.633-12.947s-35.262,36.147-44.973,46.101z" stroke="url(#linearGradient2962)" stroke-linecap="round" stroke-miterlimit="4" stroke-dasharray="none" stroke-width="8" fill="none"/><path stroke-linejoin="round" opacity="0.28571428999999998" d="M54.394,74.154c-8.148-8.35-25.763-26.404-25.763-26.404l-12.631,12.948,38.394,39.352,57.606-59.05-12.633-12.947s-35.262,36.147-44.973,46.101z" filter="url(#filter3521)" stroke="url(#radialGradient3511)" stroke-linecap="round" stroke-miterlimit="4" stroke-dasharray="none" stroke-width="8" fill="none"/><path opacity="0.40952380999999999" d="M28.406,44.031c-0.15-0.002-0.286,0.017-0.437,0.031-0.827,0.083-1.596,0.428-2.219,0.969l1.687,9.688c0.111-0.114,0.851-0.848,0.938-0.938l0.375,0.375,3.031-8.344-0.562-0.562c-0.742-0.76-1.764-1.202-2.813-1.219z" transform="matrix(1,0,0,-1,26,147.74979)" filter="url(#filter3525)" fill="url(#radialGradient3457)"/><path opacity="0.23809524000000001" d="M99.406,24.031c-0.15-0.002-0.286,0.017-0.437,0.031-0.827,0.083-1.596,0.428-2.219,0.969l1.688,9.688c0.11-0.114,0.85-0.848,0.937-0.938l0.375,0.375,3.03-8.344-0.56-0.562c-0.74-0.76-1.76-1.202-2.814-1.219z" transform="matrix(-0.3420202,0.9396927,0.9396927,0.3420202,24.20981,-42.203299)" filter="url(#filter3533)" fill="url(#radialGradient3004)"/><path opacity="0.77619048000000002" d="M28.406,44.031c-0.15-0.002-0.286,0.017-0.437,0.031-0.827,0.083-1.596,0.428-2.219,0.969l1.687,9.688c0.111-0.114,0.851-0.848,0.938-0.938l0.375,0.375,3.031-8.344-0.562-0.562c-0.742-0.76-1.764-1.202-2.813-1.219z" filter="url(#filter3529)" fill="url(#radialGradient3288)"/><path opacity="0.37142857000000001" d="M99.406,24.031c-0.15-0.002-0.286,0.017-0.437,0.031-0.827,0.083-1.596,0.428-2.219,0.969l1.688,9.688c0.11-0.114,0.85-0.848,0.937-0.938l0.375,0.375,3.03-8.344-0.56-0.562c-0.74-0.76-1.76-1.202-2.814-1.219z" transform="matrix(0.3420202,0.9396927,-0.9396927,0.3420202,104.53338,-62.203299)" filter="url(#filter3541)" fill="url(#radialGradient3004)"/><path opacity="0.87142856999999985" d="M99.406,24.031c-0.15-0.002-0.286,0.017-0.437,0.031-0.827,0.083-1.596,0.428-2.219,0.969l1.688,9.688c0.11-0.114,0.85-0.848,0.937-0.938l0.375,0.375,3.03-8.344-0.56-0.562c-0.74-0.76-1.76-1.202-2.814-1.219z" transform="translate(-2.3931686e-5,0)" filter="url(#filter3537)" fill="url(#radialGradient3004)"/><path stroke-linejoin="round" d="M54.394,74.154c-8.148-8.35-25.763-26.404-25.763-26.404l-12.631,12.948,38.394,39.352,57.606-59.05-12.633-12.947s-35.262,36.147-44.973,46.101z" stroke="url(#radialGradient2987)" stroke-linecap="round" stroke-miterlimit="4" stroke-dasharray="none" stroke-width="8" fill="none"/><path fill="url(#radialGradient2954)" d="M54.394,74.154c-8.148-8.35-25.763-26.404-25.763-26.404l-12.631,12.948,38.394,39.352,57.606-59.05-12.633-12.947s-35.262,36.147-44.973,46.101z"/><path fill="url(#linearGradient2977)" d="M99.375,28.062s-35.257,36.14-44.969,46.094c-8.148-8.35-25.781-26.406-25.781-26.406l-12.625,12.938,16.469,16.874c0.189,0.001,0.373,0,0.562,0,17.53,0,34.137-2.093,49.031-5.843l29.938-30.719-12.625-12.938z"/><path d="M54.394,74.154c-8.148-8.35-25.763-26.404-25.763-26.404l-12.631,12.948,38.394,39.352,57.606-59.05-12.633-12.947s-35.262,36.147-44.973,46.101z" filter="url(#filter3423)" stroke="url(#linearGradient3421)" fill="none"/><path d="M99.375,28.062s-0.4,0.432-0.406,0.438l12.191,12.281-30.004,30.219c-14.927,3.688-31.057,6.219-48.625,6.219h-0.375l0.313,0.343c0.189,0.001,0.373,0,0.562,0,17.53,0,34.137-2.093,49.031-5.843l29.938-30.719-12.625-12.938z" transform="translate(-2.3931686e-5,0)" fill="url(#linearGradient3442)"/><path transform="translate(-2.3931686e-5,0)" fill="url(#linearGradient3453)" d="M99.375,28.062s-35.257,36.14-44.969,46.094c-8.148-8.35-25.781-26.406-25.781-26.406l-12.625,12.938,0.5,0.5,12.125-12.438s17.633,18.056,25.781,26.406c9.712-9.954,44.969-46.094,44.969-46.094l12.125,12.438,0.5-0.5-12.625-12.938z"/></g></g></svg>