<?xml version="1.0" encoding="UTF-8" standalone="no"?><svg xmlns:rdf="http://www.w3.org/1999/02/22-rdf-syntax-ns#" xmlns="http://www.w3.org/2000/svg" height="48" width="48" version="1.0" xmlns:cc="http://creativecommons.org/ns#" xmlns:xlink="http://www.w3.org/1999/xlink" xmlns:dc="http://purl.org/dc/elements/1.1/"><defs><linearGradient id="linearGradient6565"><stop stop-color="#000" offset="0"/><stop stop-color="#000" stop-opacity="0" offset="1"/></linearGradient><linearGradient id="linearGradient6516"><stop stop-color="#C00" offset="0"/><stop stop-color="#ef2929" offset="1"/></linearGradient><linearGradient id="linearGradient6690" y2="-8.0502" xlink:href="#linearGradient6516" gradientUnits="userSpaceOnUse" y1="12.284" gradientTransform="matrix(2.1466396,0,0,2.0983681,-62.708523,-14.532865)" x2="8.3141" x1="8.3141"/><linearGradient id="linearGradient6716" y2="-8.0502" xlink:href="#linearGradient6516" gradientUnits="userSpaceOnUse" y1="12.284" gradientTransform="matrix(2.1466396,0,0,-2.0983681,-172.70852,46.532865)" x2="8.3141" x1="8.3141"/><linearGradient id="linearGradient6999" y2="-8.0502" xlink:href="#linearGradient6516" gradientUnits="userSpaceOnUse" y1="12.284" gradientTransform="matrix(1.53347,0,0,1.5010009,-3.0898627,2.4172e-2)" x2="8.3141" x1="8.3141"/><linearGradient id="linearGradient7001" y2="-8.0502" xlink:href="#linearGradient6516" gradientUnits="userSpaceOnUse" y1="12.284" gradientTransform="matrix(1.53347,0,0,-1.5010009,-283.08986,31.975828)" x2="8.3141" x1="8.3141"/><radialGradient id="radialGradient6748" xlink:href="#linearGradient6565" gradientUnits="userSpaceOnUse" cy="17.438" cx="10.844" gradientTransform="matrix(1,0,0,0.3381924,0,11.54027)" r="10.719"/><linearGradient id="linearGradient6752" y2="67.352" gradientUnits="userSpaceOnUse" y1="20.506" x2="-23.865" x1="-3.8747"><stop stop-color="#729fcf" offset="0"/><stop stop-color="#3465a4" offset="1"/></linearGradient></defs><path opacity="0.2" d="M21.562,17.438a10.719,3.625,0,1,1,-21.437,0,10.719,3.625,0,1,1,21.437,0z" transform="matrix(1.7259475,0,0,1.9999999,5.2842566,2.8750011)" fill="url(#radialGradient6748)"/><path opacity="0.25" d="M21.562,17.438a10.719,3.625,0,1,1,-21.437,0,10.719,3.625,0,1,1,21.437,0z" transform="matrix(0.4664723,0,0,0.5715648,18.941691,33.03334)" fill="url(#radialGradient6748)"/><rect stroke-linejoin="miter" stroke-dasharray="none" fill="url(#linearGradient6752)" stroke-dashoffset="0.7" rx="3.0791" ry="3.0791" transform="matrix(0.7071068,-0.7071068,0.7071068,0.7071068,0,0)" width="30.791" stroke="#3465a4" stroke-linecap="round" stroke-miterlimit="4" y="17.838" x="-14.688" height="30.791" stroke-width="1"/><path stroke-linejoin="miter" d="M-11.594,19.312c-0.933,0-1.625,0.678-1.625,1.594v24.656c0,0.916,0.692,1.594,1.625,1.594h24.625c0.934,0,1.594-0.66,1.594-1.594v-24.656c0-0.933-0.66-1.594-1.594-1.594h-24.625z" transform="matrix(0.7071068,-0.7071068,0.7071068,0.7071068,0,0)" stroke-dashoffset="0.7" stroke="#FFF" stroke-linecap="round" stroke-miterlimit="4" stroke-dasharray="none" stroke-width="2" fill="none"/><path fill="#FFF" d="M26.089,26.048h-3.949v-0.536c0-0.598,0.12-1.127,0.361-1.586,0.241-0.467,0.747-1.058,1.521-1.773l0.7-0.634c0.416-0.38,0.718-0.737,0.908-1.072,0.197-0.336,0.295-0.672,0.295-1.007,0-0.511-0.175-0.908-0.525-1.193-0.35-0.291-0.839-0.437-1.466-0.437-0.591,0-1.229,0.124-1.915,0.372-0.685,0.24-1.4,0.602-2.144,1.083v-3.436c0.883-0.306,1.689-0.532,2.418-0.678s1.433-0.219,2.112-0.219c1.779,0,3.136,0.365,4.07,1.094,0.933,0.723,1.4,1.78,1.4,3.173,0,0.715-0.142,1.357-0.427,1.926-0.284,0.562-0.769,1.167-1.455,1.816l-0.7,0.624c-0.496,0.452-0.821,0.817-0.974,1.094-0.153,0.27-0.23,0.569-0.23,0.897v0.492m-4.012,1.995h3.95v3.895h-3.95v-3.895"/><g display="none"><path stroke-linejoin="round" d="M-40.312,2.5c-0.805-0.004-1.533,0.477-1.844,1.2188l-10.156,23.75c-0.066,0.17-0.108,0.349-0.126,0.531l-1.812,14.25c-0.075,0.568,0.098,1.14,0.475,1.571s0.921,0.678,1.494,0.679h21.562c0.805,0.004,1.532-0.477,1.844-1.219l10.156-23.75c0.066-0.17,0.108-0.349,0.125-0.531l1.782-14.25c0.075-0.5675-0.098-1.1399-0.475-1.5708-0.377-0.4308-0.922-0.6783-1.494-0.6792h-21.531z" transform="translate(-50,0)" stroke-dashoffset="0.7" stroke="#a40000" stroke-linecap="round" stroke-miterlimit="4" stroke-width="0.99999988" fill="url(#linearGradient6690)"/><path opacity="0.46982757" stroke-linejoin="round" d="M-40.312,2.5c-0.805-0.004-1.533,0.477-1.844,1.2188l-10.156,23.75c-0.066,0.17-0.108,0.349-0.126,0.531l-1.812,14.25c-0.075,0.568,0.098,1.14,0.475,1.571s0.921,0.678,1.494,0.679h21.562c0.805,0.004,1.532-0.477,1.844-1.219l10.156-23.75c0.066-0.17,0.108-0.349,0.125-0.531l1.782-14.25c0.075-0.5675-0.098-1.1399-0.475-1.5708-0.377-0.4308-0.922-0.6783-1.494-0.6792h-21.531z" transform="translate(-105.15625,12)" stroke-dashoffset="0.7" stroke="#280b0b" stroke-linecap="round" stroke-miterlimit="4" stroke-width="0.99999988" fill="url(#linearGradient6690)"/><path stroke-linejoin="round" d="M-128.78,2.5c0.28,0.0004,0.55,0.0696,0.81,0.1875-0.25-0.1158-0.53-0.1871-0.81-0.1875zm-26.69,12c-0.73-0.004-1.4,0.398-1.75,1.031l-0.03,0.063-5.06,11.875c-0.07,0.17-0.11,0.349-0.13,0.531l-1.81,14.25c-0.08,0.568,0.09,1.132,0.47,1.562,0.38,0.431,0.93,0.687,1.5,0.688h21.56c0.81,0.004,1.53-0.477,1.84-1.219l10.16-23.75-5.16,12c0.07-0.17,0.11-0.349,0.13-0.531l1.78-14.25c0.08-0.568-0.09-1.132-0.47-1.562-0.37-0.431-0.92-0.687-1.5-0.688h-21.53z" stroke-dashoffset="0.7" stroke="#a40000" stroke-linecap="round" stroke-miterlimit="4" stroke-width="0.99999988" fill="url(#linearGradient6716)"/><path stroke-linejoin="round" d="M-90.312,2.5c-0.805-0.004-1.533,0.477-1.844,1.2188l-5.094,11.875c0.338-0.669,1.024-1.098,1.781-1.094h21.531c0.573,0.001,1.124,0.257,1.5,0.688,0.377,0.43,0.544,0.994,0.469,1.562l-1.781,14.25c-0.017,0.182-0.059,0.361-0.125,0.531l5.156-12c0.066-0.17,0.108-0.349,0.125-0.531l1.782-14.25c0.075-0.5675-0.092-1.1317-0.469-1.5625s-0.928-0.6866-1.5-0.6875h-21.531z" stroke-dashoffset="0.7" stroke="#204a87" stroke-linecap="round" stroke-miterlimit="4" stroke-width="0.99999988" fill="#3465a4"/><path d="M-40.312,2.9688c-0.617-0.0031-1.168,0.3693-1.407,0.9374l-10.156,23.75c-0.05,0.131-0.081,0.236-0.094,0.375,0.001,0.011,0.001,0.021,0,0.031l-1.812,14.25c-0.058,0.438,0.055,0.858,0.343,1.188,0.289,0.33,0.723,0.531,1.157,0.531h21.562c0.617,0.003,1.168-0.369,1.407-0.937l10.156-23.75c0.05-0.131,0.08-0.236,0.094-0.375-0.001-0.011-0.001-0.021,0-0.031l1.781-14.25c0.058-0.4379-0.055-0.8577-0.344-1.1875s-0.723-0.5306-1.156-0.5312h-21.531z" transform="translate(-150,-90)" fill="#fce94f"/><path stroke-linejoin="round" d="M12.875,0.5c-0.54,0.05893-1.007,0.40565-1.219,0.9062l-7.2498,16.969c-0.0607,0.129-0.1028,0.266-0.125,0.406l-1.2812,10.031c-0.054,0.43,0.0798,0.861,0.3672,1.185,0.2873,0.323,0.7003,0.506,1.1328,0.503h15.156c0.598-0.001,1.139-0.357,1.375-0.906l7.219-16.938c0.061-0.129,0.103-0.265,0.125-0.406l1.281-10.062c0.054-0.4292-0.08-0.8608-0.367-1.184-0.287-0.32333-0.7-0.50684-1.133-0.5035h-15.125c-0.052-0.00271-0.104-0.00271-0.156,0z" transform="translate(-210,0)" stroke-dashoffset="0.7" stroke="#a40000" stroke-linecap="round" stroke-miterlimit="4" stroke-width="0.99999982" fill="url(#linearGradient6999)"/><path stroke-linejoin="round" d="M-270.97,9.5c-0.54,0.0589-1.01,0.4056-1.22,0.906l-3.4,7.969c-0.06,0.129-0.11,0.266-0.13,0.406l-1.28,10.031c-0.05,0.43,0.09,0.865,0.38,1.188,0.28,0.323,0.69,0.503,1.12,0.5h15.16c0.59-0.001,1.13-0.357,1.37-0.906l3.38-7.938c0.06-0.129,0.1-0.265,0.12-0.406l1.28-10.062c0.06-0.43-0.09-0.865-0.37-1.188-0.29-0.3233-0.69-0.5033-1.13-0.5h-15.12c-0.05-0.0027-0.11-0.0027-0.16,0z" stroke-dashoffset="0.7" stroke="#a40000" stroke-linecap="round" stroke-miterlimit="4" stroke-width="0.99999982" fill="url(#linearGradient7001)"/><path stroke-linejoin="round" d="M-267.12,0.5c-0.55,0.05893-1.01,0.40565-1.22,0.9062l-3.85,8.9998c0.21-0.5004,0.68-0.8471,1.22-0.906,0.05-0.0027,0.11-0.0027,0.16,0h15.12c0.44-0.0033,0.84,0.1767,1.13,0.5,0.28,0.323,0.43,0.758,0.37,1.188l-1.28,10.062c-0.02,0.141-0.06,0.277-0.12,0.406l3.84-9c0.06-0.129,0.1-0.265,0.13-0.406l1.28-10.062c0.05-0.4292-0.09-0.8642-0.38-1.1875-0.29-0.32329-0.69-0.50334-1.12-0.5h-15.13c-0.05-0.00271-0.1-0.00271-0.15,0z" stroke-dashoffset="0.7" stroke="#204a87" stroke-linecap="round" stroke-miterlimit="4" stroke-width="0.99999982" fill="#3465a4"/></g></svg>