<?xml version="1.0" encoding="UTF-8" standalone="no"?><!-- Created with Inkscape (http://www.inkscape.org/) --><svg xmlns:rdf="http://www.w3.org/1999/02/22-rdf-syntax-ns#" xmlns="http://www.w3.org/2000/svg" height="48px" width="48px" version="1.1" xmlns:cc="http://creativecommons.org/ns#" xmlns:xlink="http://www.w3.org/1999/xlink" xmlns:dc="http://purl.org/dc/elements/1.1/"><defs><linearGradient id="linearGradient2704" y2="7.1072" gradientUnits="userSpaceOnUse" y1="-13.445" gradientTransform="matrix(2.3440063,0,0,2.3440063,-121.79862,31.22942)" x2="62.609" x1="62.746"><stop stop-color="#FFF" offset="0"/><stop stop-color="#FFF" stop-opacity="0" offset="1"/></linearGradient><linearGradient id="linearGradient3927" y2="3.8851" gradientUnits="userSpaceOnUse" y1="44.788" gradientTransform="matrix(1.0805272,0,0,1.0805026,-1.508285,-3.3507596)" x2="15.047" x1="15.047"><stop stop-color="#a40000" offset="0"/><stop stop-color="#c22f2f" offset="1"/></linearGradient><radialGradient id="radialGradient2707" gradientUnits="userSpaceOnUse" cy="-5.7132" cx="62.202" gradientTransform="matrix(-7.565785,-6.219707e-7,3.9644633e-7,-4.8230546,494.60904,-26.555114)" r="9.7553"><stop stop-color="#e78181" offset="0"/><stop stop-color="#e15f5f" offset="0.25288"/><stop stop-color="#c22f2f" offset="0.68271"/><stop stop-color="#a40000" offset="1"/></radialGradient><radialGradient id="radialGradient3080" gradientUnits="userSpaceOnUse" cy="73.616" cx="6.7027" gradientTransform="scale(1.902215,0.525703)" r="7.2284"><stop stop-color="#000" offset="0"/><stop stop-color="#000" stop-opacity="0" offset="1"/></radialGradient></defs><path opacity="0.5" style="marker-end:none;marker-start:none;marker-mid:none;" d="M26.5,38.7a13.75,3.8,0,1,1,-27.5,0,13.75,3.8,0,1,1,27.5,0z" fill-rule="nonzero" transform="matrix(1.6,0,0,1.8421053,3.6,-30.289477)" fill="url(#radialGradient3080)"/><path d="M45.5,22.999c0,11.875-9.627,21.501-21.5,21.501-11.874,0-21.5-9.626-21.5-21.501,0-11.874,9.626-21.499,21.5-21.499,11.873,0,21.5,9.625,21.5,21.499z" fill-rule="nonzero" stroke="url(#linearGradient3927)" stroke-miterlimit="4" stroke-dasharray="none" stroke-width="1.00004065" fill="url(#radialGradient2707)"/><path opacity="0.6" d="M44.499,22.999c0,11.322-9.179,20.501-20.499,20.501-11.322,0-20.5-9.179-20.5-20.501,0-11.321,9.178-20.499,20.5-20.499,11.32,0,20.499,9.178,20.499,20.499z" stroke="url(#linearGradient2704)" stroke-miterlimit="4" stroke-dasharray="none" stroke-width="1.00004995" fill="none"/><path opacity="0.15" style="text-align:start;" fill="#000" d="M10,24h28v-5h-28v5z"/><path style="text-align:start;" fill="#FFF" d="M10,26h28v-6h-28v6z"/></svg>