<?xml version="1.0" encoding="UTF-8" standalone="no"?><svg height="128" xmlns:cc="http://creativecommons.org/ns#" xmlns:dc="http://purl.org/dc/elements/1.1/" space="preserve" width="128" version="1.0" xmlns:xlink="http://www.w3.org/1999/xlink" overflow="visible" xmlns:rdf="http://www.w3.org/1999/02/22-rdf-syntax-ns#" xmlns="http://www.w3.org/2000/svg" viewBox="0 0 121 120" enable-background="new 0 0 121 120"><defs><linearGradient id="linearGradient5990"><stop stop-color="#FFF" offset="0"/><stop stop-color="#FFF" stop-opacity="0" offset="1"/></linearGradient><filter id="filter5956"><feGaussianBlur stdDeviation="0.55418773"/></filter><filter id="filter6074"><feGaussianBlur stdDeviation="1.9142018"/></filter><clipPath id="clipPath6080" clipPathUnits="userSpaceOnUse"><path d="M-135.84,93.332a30.69,30.69,0,1,1,-61.38,0,30.69,30.69,0,1,1,61.38,0z" filter="url(#filter6074)" fill="url(#radialGradient6084)"/></clipPath><radialGradient id="radialGradient6084" xlink:href="#linearGradient5990" gradientUnits="userSpaceOnUse" cy="65.938" cx="-166.53" gradientTransform="matrix(1,0,0,0.6578174,0,22.562908)" r="31.19"/><radialGradient id="radialGradient3960" gradientUnits="userSpaceOnUse" cy="65.938" cx="-166.53" gradientTransform="matrix(0.5375647,0,0,0.6578174,-77.010381,22.562908)" r="31.19"><stop stop-color="#00c4cc" offset="0"/><stop stop-color="#FFF" stop-opacity="0" offset="1"/></radialGradient><radialGradient id="radialGradient3962" gradientUnits="userSpaceOnUse" cy="84.275" cx="-166.53" gradientTransform="matrix(0,1,-1,0,-39.9985,140.0029)" r="31.19"><stop stop-color="#0081ec" offset="0"/><stop stop-color="#003871" offset="1"/></radialGradient><radialGradient id="radialGradient3966" gradientUnits="userSpaceOnUse" cy="116.62" cx="-166.53" gradientTransform="matrix(0,1,-1,0,-39.9985,140.0029)" r="31.19"><stop stop-color="#0081ec" offset="0"/><stop stop-color="#004c98" offset="1"/></radialGradient><linearGradient id="linearGradient3977" y2="95.831" xlink:href="#linearGradient5990" gradientUnits="userSpaceOnUse" y1="72.392" gradientTransform="matrix(1.6853103,0,0,1.6853103,353.86312,-111.18583)" x2="-176.14" x1="-176.82"/><linearGradient id="linearGradient3980" y2="92.123" gradientUnits="userSpaceOnUse" y1="114.56" gradientTransform="matrix(1.6853103,0,0,1.6853103,353.22028,-117.4341)" x2="-181.66" x1="-158.77"><stop stop-color="#FFF" offset="0"/><stop stop-color="#FFF" stop-opacity="0" offset="1"/></linearGradient><linearGradient id="linearGradient3983" y2="109.1" gradientUnits="userSpaceOnUse" y1="5.9641" gradientTransform="matrix(1.6853103,0,0,1.6853103,353.86312,-111.18583)" x2="-176.82" x1="-176.82"><stop stop-color="#FFF" offset="0"/><stop stop-color="#FFF" stop-opacity="0" offset="1"/></linearGradient><linearGradient id="linearGradient3987" y2="117.8" gradientUnits="userSpaceOnUse" y1="68.066" gradientTransform="matrix(1.7828076,0,0,1.7828076,363.08446,-110.557)" x2="-150.48" x1="-150.48"><stop stop-color="#a4c0e4" offset="0"/><stop stop-color="#a4c0e4" stop-opacity="0" offset="1"/></linearGradient><filter id="filter4737"><feGaussianBlur stdDeviation="0.61380459"/></filter><linearGradient id="linearGradient4747" y2="67.386" gradientUnits="userSpaceOnUse" y1="125.06" x2="-174.98" x1="-175.86"><stop stop-color="#00316e" offset="0"/><stop stop-color="#00316e" stop-opacity="0" offset="1"/></linearGradient><radialGradient id="radialGradient3879" gradientUnits="userSpaceOnUse" cy="39.362" cx="58.609" gradientTransform="matrix(3.9306215,0,0,1.1236544,-171.76189,-4.5553292)" r="11.462"><stop stop-color="#00316e" offset="0"/><stop stop-color="#00316e" stop-opacity="0" offset="1"/></radialGradient><filter id="filter3881"><feGaussianBlur stdDeviation="0.45848289"/></filter><radialGradient id="radialGradient3892" gradientUnits="userSpaceOnUse" cy="77.887" cx="61.031" gradientTransform="matrix(2.8701665,0,0,2.3395648,-113.14508,-101.5491)" r="17.016"><stop stop-color="#00316e" offset="0"/><stop stop-color="#00316e" stop-opacity="0" offset="1"/></radialGradient><filter id="filter3894"><feGaussianBlur stdDeviation="0.8696875"/></filter><filter id="filter3925"><feGaussianBlur stdDeviation="0.1153125"/></filter></defs><filter><feGaussianBlur stdDeviation="3"/></filter><filter id="AI_Sfocatura_2"><feGaussianBlur stdDeviation="2"/></filter><filter id="AI_Sfocatura_1"><feGaussianBlur stdDeviation="1"/></filter><path d="M-135.84,93.332a30.69,30.69,0,1,1,-61.38,0,30.69,30.69,0,1,1,61.38,0z" clip-path="none" transform="matrix(-1.7332269,0,0,1.7332269,-228.13814,-101.76485)" filter="url(#filter4737)" fill="url(#linearGradient4747)"/><path d="M-135.84,93.332a30.69,30.69,0,1,1,-61.38,0,30.69,30.69,0,1,1,61.38,0z" transform="matrix(-1.7332269,0,0,1.7332269,-228.13814,-101.76485)" filter="url(#filter6074)" fill="url(#radialGradient6084)"/><path d="M-135.84,93.332a30.69,30.69,0,1,1,-61.38,0,30.69,30.69,0,1,1,61.38,0z" clip-path="url(#clipPath6080)" transform="matrix(-1.7208092,0,0,-1.7208092,-226.07019,220.60588)" filter="url(#filter6074)" fill="url(#radialGradient3960)"/><path d="M-135.84,93.332a30.69,30.69,0,1,1,-61.38,0,30.69,30.69,0,1,1,61.38,0z" transform="matrix(-1.7208092,0,0,1.7208092,-226.07019,-100.60589)" fill="url(#radialGradient3962)"/><path d="M-135.84,93.332a30.69,30.69,0,1,1,-61.38,0,30.69,30.69,0,1,1,61.38,0z" clip-path="url(#clipPath6080)" transform="matrix(-1.7208092,0,0,1.7208092,-226.07019,-100.60589)" filter="url(#filter6074)" fill="url(#radialGradient6084)"/><path d="M-135.84,93.332a30.69,30.69,0,1,1,-61.38,0,30.69,30.69,0,1,1,61.38,0z" transform="matrix(-1.5965972,0,0,1.5965972,-205.38489,-89.237223)" fill="url(#radialGradient3966)"/><path opacity="0.8921933" fill="url(#linearGradient3987)" d="M60.495,10.793c-27.048,0-48.979,21.932-48.979,48.98,0,2.518,0.16,5.009,0.526,7.426,0.003,0.017-0.002,0.035,0,0.052,10.299,1.647,21.266,2.476,32.653,2.476,24.328,0,46.784-4.066,64.775-10.902-0.5-26.611-22.244-48.032-48.975-48.032z"/><path opacity="0.3" stroke-linejoin="round" d="M68.062,35.422a9.4531,9.4531,0,1,1,-18.906,0,9.4531,9.4531,0,1,1,18.906,0z" transform="matrix(0.88063,0,0,0.88063,8.88683,3.2755561)" filter="url(#filter3881)" stroke="url(#radialGradient3879)" stroke-linecap="round" stroke-miterlimit="4" stroke-dasharray="none" stroke-width="4.29380083" fill="none"/><path d="M-134.09,98.625c-0.01,0.167-0.03,0.333-0.03,0.5,0,16.045,13.04,29.065,29.09,29.065,16.048,0,29.061-13.02,29.061-29.065,0-0.167,0.003-0.334,0-0.5-0.267,15.815-13.18,28.565-29.061,28.565-15.88,0-28.8-12.75-29.06-28.565z" transform="matrix(-1.6853103,0,0,1.6853103,-116.5417,-106.76838)" filter="url(#filter5956)" fill="#007fea"/><path fill="url(#linearGradient3983)" d="M60.466,10.828c-27.048,0-48.98,21.932-48.98,48.979,0,0.249-0.003,0.49,0,0.738,0.506-26.611,22.249-48.032,48.98-48.032,26.162,0,47.554,20.525,48.924,46.347,0.02-0.006,0.04,0.005,0.06,0-0.51-26.611-22.253-48.032-48.984-48.032z"/><path opacity="0.8" d="M60.466,10.828c-27.048,0-48.98,21.932-48.98,48.979,0,0.249-0.003,0.49,0,0.738,0.506-26.611,22.249-48.706,48.98-48.706,26.162,0,47.554,21.199,48.924,47.021,0.02-0.006,0.04,0.005,0.06,0-0.51-26.611-22.253-48.032-48.984-48.032z" fill="url(#linearGradient3977)"/><symbol viewBox="-8 -14 16 28"><path fill="#FFF" d="M8,14h-2-12-2v-2-24-2h2,12,2v2,24,2zm-14-2h12v-24h-12v24z"/><linearGradient id="XMLID_203_" gradientUnits="userSpaceOnUse" x2="4" x1="-4"><stop stop-color="#2E3436" offset="0"/><stop stop-color="#555753" offset="0.4024"/><stop stop-color="#2E3436" offset="1"/></linearGradient><path fill="url(#XMLID_203_)" d="M-4,10v-20h8v20h-8z"/><radialGradient id="XMLID_204_" gradientUnits="userSpaceOnUse" cy="-6.75" cx="0" r="2.7613"><stop stop-color="#EEEEEC" offset="0.4024"/><stop stop-color="#555753" offset="1"/></radialGradient><path fill="url(#XMLID_204_)" d="M-3-4.25v-5h6v5h-6z"/><radialGradient id="XMLID_205_" gradientUnits="userSpaceOnUse" cy="0" cx="-8119" gradientTransform="matrix(0.5,0,0,1,4059.5,0)" r="4"><stop stop-color="#BABDB6" offset="0.1065"/><stop stop-color="#555753" offset="1"/></radialGradient><path fill="url(#XMLID_205_)" d="M-2,4v-8h4v8h-4z"/><radialGradient id="XMLID_206_" fx="-0.0415" fy="6.4209" gradientUnits="userSpaceOnUse" cy="6.75" cx="0" r="2.7613"><stop stop-color="#D3D7CF" offset="0.1065"/><stop stop-color="#555753" offset="1"/></radialGradient><path fill="url(#XMLID_206_)" d="M-3,9.25v-5h6v5h-6z"/></symbol><symbol viewBox="-20 -20 40 40"><path fill="#FFF" d="M0,20c-11.045,0-20-8.955-20-20s8.955-20,20-20,20,8.955,20,20-8.955,20-20,20zm0-38c-9.925,0-18,8.075-18,18s8.075,18,18,18,18-8.075,18-18-8.075-18-18-18z"/><path d="M-16,0c0-8.822,7.178-16,16-16s16,7.178,16,16-7.178,16-16,16-16-7.178-16-16z"/><linearGradient id="XMLID_207_" gradientUnits="userSpaceOnUse" x2="10.789" x1="-10.79"><stop stop-color="#BABDB6" offset="0.1065"/><stop stop-color="#D3D7CF" offset="0.7396"/><stop stop-color="#EEE" offset="1"/></linearGradient><path fill="url(#XMLID_207_)" d="M-10.79,0c0-5.949,4.84-10.789,10.79-10.789s10.789,4.84,10.789,10.789c0,5.948-4.84,10.789-10.79,10.789s-10.789-4.841-10.789-10.789z"/><linearGradient id="XMLID_208_" y2="0.5" gradientUnits="userSpaceOnUse" y1="-10.789" x2="-0.00048877" x1="-0.00048828"><stop stop-color="#BABDB6" offset="0.1065"/><stop stop-color="#D3D7CF" offset="0.7396"/><stop stop-color="#EEE" offset="1"/></linearGradient><path fill="url(#XMLID_208_)" d="M0-9.789c-5.78,0-10.501,4.572-10.764,10.289-0.008-0.167-0.026-0.331-0.026-0.5,0-5.949,4.84-10.789,10.79-10.789s10.789,4.84,10.789,10.789c0,0.169-0.018,0.333-0.025,0.5-0.264-5.717-4.984-10.289-10.764-10.289z"/><defs><path id="XMLID_27_" d="M-16,0c0-8.822,7.178-16,16-16s16,7.178,16,16-7.178,16-16,16-16-7.178-16-16z"/></defs><clipPath id="XMLID_209_"><use xlink:href="#XMLID_27_" height="120" width="121" y="0" x="0"/></clipPath><g filter="url(#AI_Sfocatura_1)" clip-path="url(#XMLID_209_)"><linearGradient id="XMLID_210_" y2="6.5" gradientUnits="userSpaceOnUse" y1="6.5" x2="15" x1="-15"><stop stop-color="#000" offset="0.1065"/><stop stop-color="#FFF" offset="0.7396"/><stop stop-color="#000" offset="1"/></linearGradient><path fill="url(#XMLID_210_)" d="M-14-1c0,7.72,6.28,14,14,14s14-6.28,14-14h1c0,8.271-6.729,15-15,15s-15-6.729-15-15h1z"/></g></symbol><symbol viewBox="-14 -8 28 16"><path fill="#FFF" d="M-14,8v-2-12-2h2,24,2v2,12,2h-2-24-2zm2-14v12h24v-12h-24z"/><linearGradient id="XMLID_211_" y2="8339" gradientUnits="userSpaceOnUse" y1="8339" gradientTransform="matrix(0,1,-1,0,8339,-8189)" x2="8193" x1="8185"><stop stop-color="#2E3436" offset="0"/><stop stop-color="#555753" offset="0.4024"/><stop stop-color="#2E3436" offset="1"/></linearGradient><path fill="url(#XMLID_211_)" d="M-10-4h20v8h-20v-8z"/><radialGradient id="XMLID_212_" gradientUnits="userSpaceOnUse" cy="8332.2" cx="8189" gradientTransform="matrix(0,1,-1,0,8339,-8189)" r="2.7613"><stop stop-color="#EEEEEC" offset="0.4024"/><stop stop-color="#555753" offset="1"/></radialGradient><path fill="url(#XMLID_212_)" d="M4.25-3h5v6h-5v-6z"/><radialGradient id="XMLID_213_" gradientUnits="userSpaceOnUse" cy="8339" cx="8259" gradientTransform="matrix(0,0.5,-1,0,8339,-4129.5)" r="4"><stop stop-color="#BABDB6" offset="0.1065"/><stop stop-color="#555753" offset="1"/></radialGradient><path fill="url(#XMLID_213_)" d="M-4-2h8v4h-8v-4z"/><radialGradient id="XMLID_214_" fy="8345.4" gradientUnits="userSpaceOnUse" cy="8345.8" cx="8189" gradientTransform="matrix(0,1,-1,0,8339,-8189)" r="2.7613"><stop stop-color="#D3D7CF" offset="0.1065"/><stop stop-color="#555753" offset="1"/></radialGradient><path fill="url(#XMLID_214_)" d="M-9.25-3h5v6h-5v-6z"/></symbol><symbol viewBox="-35.726 -35.726 71.451 71.451"><path fill="#FFF" d="M0,35.726c-19.729,0-35.725-15.996-35.725-35.726s15.996-35.726,35.725-35.726c19.73,0,35.726,15.995,35.726,35.726,0,19.729-15.997,35.726-35.726,35.726zm0-67.452c-8.474,0-16.44,3.3-22.432,9.292-5.993,5.994-9.294,13.96-9.294,22.434s3.3,16.439,9.293,22.433c5.993,5.993,13.959,9.293,22.433,9.293s16.441-3.3,22.433-9.293c5.992-5.994,9.293-13.959,9.293-22.433s-3.3-16.44-9.293-22.434c-5.993-5.992-13.959-9.292-22.433-9.292z"/><use xlink:href="#XMLID_34_" height="120" width="121" y="0" x="0"/><clipPath id="XMLID_215_"><use xlink:href="#XMLID_34_" height="120" width="121" y="0" x="0"/></clipPath><g clip-path="url(#XMLID_215_)"><g filter="url(#AI_Sfocatura_2)"><path fill="#FFF" d="M-27.487,7.811c7.221,3.533,12.737,10.021,14.974,17.879-7.222-3.532-12.737-10.021-14.974-17.879z"/></g><g filter="url(#AI_Sfocatura_2)"><path fill="#FFF" d="M24.169,15.225c-4.043,6.395-10.547,11.082-18.173,12.719,4.043-6.395,10.546-11.084,18.173-12.719z"/></g></g><g opacity="0.8"><clipPath id="XMLID_216_"><use xlink:href="#XMLID_36_" height="120" width="121" y="0" x="0"/></clipPath><g clip-path="url(#XMLID_216_)"><g filter="url(#AI_Sfocatura_2)"><linearGradient id="XMLID_217_" y2="-16.75" gradientUnits="userSpaceOnUse" y1="-16.75" x2="-32.167" x1="38"><stop stop-color="#000" offset="0.1065"/><stop stop-color="#EEE" offset="0.497"/><stop stop-color="#FFF" offset="0.7396"/><stop stop-color="#000" offset="1"/></linearGradient><path fill="url(#XMLID_217_)" d="M27.486-7.811c-7.221-3.531-12.737-10.021-14.974-17.879,7.222,3.534,12.738,10.022,14.974,17.879z"/></g><g filter="url(#AI_Sfocatura_2)"><linearGradient id="XMLID_218_" y2="-21.583" gradientUnits="userSpaceOnUse" y1="-21.583" x2="-32.167" x1="38"><stop stop-color="#000" offset="0.1065"/><stop stop-color="#EEE" offset="0.497"/><stop stop-color="#FFF" offset="0.7396"/><stop stop-color="#000" offset="1"/></linearGradient><path fill="url(#XMLID_218_)" d="M-24.17-15.225c4.042-6.395,10.546-11.082,18.173-12.717-4.043,6.394-10.546,11.083-18.173,12.717z"/></g></g></g><linearGradient id="XMLID_219_" y2="11.052" gradientUnits="userSpaceOnUse" y1="-11.05" x2="15.781" x1="-15.783"><stop stop-color="#BABDB6" offset="0.1065"/><stop stop-color="#EEE" offset="0.497"/><stop stop-color="#D3D7CF" offset="0.7396"/><stop stop-color="#EEE" offset="1"/></linearGradient><path fill="url(#XMLID_219_)" d="M-19.273,0c0-10.627,8.646-19.271,19.273-19.271s19.272,8.644,19.272,19.271-8.646,19.273-19.272,19.273-19.273-8.646-19.273-19.273z"/></symbol><path opacity="0.6" d="M78.82,14.338c16.249,7.746,29.61,24.946,29.97,44.055-17.992,6.837-43.442,10.605-67.77,10.605-9.474,0.2-18.647-0.128-29.033-1.784,0.002,0.017-0.003,0.036,0,0.053,10.298,1.647,21.265,2.475,32.652,2.475,24.328,0,46.784-4.065,64.781-10.902-0.38-20.144-12.927-37.347-30.6-44.502z" fill="url(#linearGradient3980)"/><path opacity="0.5" stroke-linejoin="miter" d="M68.062,86.469h7.563v7.562h-30.25v-7.562h7.563v-30.25h-7.563v-7.563h22.687v37.813z" filter="url(#filter3894)" stroke="url(#radialGradient3892)" stroke-linecap="butt" stroke-miterlimit="4" stroke-dasharray="none" stroke-width="3.78125" fill="none"/><path d="M68.062,35.422a9.4531,9.4531,0,1,1,-18.906,0,9.4531,9.4531,0,1,1,18.906,0z" transform="matrix(0.88063,0,0,0.88063,8.88683,3.2755561)" fill="#FFF"/><path fill="#EEE" d="M68.062,86.469h7.563v7.562h-30.25v-7.562h7.563v-30.25h-7.563v-7.563h22.687v37.813z"/><path d="M48,52v8l7.857-0.143v14.125c5.452-0.208,10.503-0.464,15.714-1.044v-20.938h-23.571z" transform="matrix(0.9625375,0,0,0.9625375,-0.8268,-1.3957)" filter="url(#filter3925)" fill="#FFF"/></svg>