<?xml version="1.0" encoding="UTF-8" standalone="no"?><svg xmlns:rdf="http://www.w3.org/1999/02/22-rdf-syntax-ns#" xmlns="http://www.w3.org/2000/svg" height="128" width="128" version="1.0" xmlns:cc="http://creativecommons.org/ns#" xmlns:xlink="http://www.w3.org/1999/xlink" xmlns:dc="http://purl.org/dc/elements/1.1/"><defs><linearGradient id="linearGradient3400"><stop stop-color="#FF0" offset="0"/><stop stop-color="#FF0" stop-opacity="0" offset="1"/></linearGradient><linearGradient id="linearGradient4056"><stop stop-color="#ffd500" offset="0"/><stop stop-color="#FF9" stop-opacity="0" offset="1"/></linearGradient><radialGradient id="radialGradient3849" gradientUnits="userSpaceOnUse" cy="85.945" cx="63.684" gradientTransform="matrix(4.125192,-0.4335743,0.1499795,1.4269598,-211.59742,-0.8510997)" r="48.004"><stop stop-color="#FF0" offset="0"/><stop stop-color="#ff7e00" offset="1"/></radialGradient><linearGradient id="linearGradient3857" y2="108.01" gradientUnits="userSpaceOnUse" y1="37.713" gradientTransform="matrix(1.0003186,0,0,1.0920256,4.8948421e-3,-2.1497485)" x2="74.686" x1="74.686"><stop stop-color="#FD0" offset="0"/><stop stop-color="#e15800" offset="1"/></linearGradient><filter id="filter3950"><feGaussianBlur stdDeviation="0.45503695"/></filter><linearGradient id="linearGradient3960" y2="42.471" gradientUnits="userSpaceOnUse" y1="102.72" x2="72.743" x1="72.743"><stop stop-color="#ffffbf" offset="0"/><stop stop-color="#ffffbf" stop-opacity="0" offset="1"/></linearGradient><linearGradient id="linearGradient3977" y2="82.91" gradientUnits="userSpaceOnUse" y1="15.087" gradientTransform="matrix(1.0152964,0,0,1.0920256,-1.3711972,-2.1497485)" x2="67.189" x1="65.98"><stop stop-color="#FFF" offset="0"/><stop stop-color="#FFF" stop-opacity="0" offset="1"/></linearGradient><radialGradient id="radialGradient4062" xlink:href="#linearGradient4056" gradientUnits="userSpaceOnUse" cy="102" cx="22.005" gradientTransform="matrix(8.2879791,-4.7852502,0.5464445,0.9465058,-219.3366,117.99253)" r="5.995"/><radialGradient id="radialGradient4066" xlink:href="#linearGradient4056" gradientUnits="userSpaceOnUse" cy="102" cx="22.005" gradientTransform="matrix(-8.2879791,-4.7852502,-0.5464445,0.9465058,347.61812,117.99253)" r="5.995"/><radialGradient id="radialGradient4076" gradientUnits="userSpaceOnUse" cy="21.994" cx="64" gradientTransform="matrix(-1,0,0,-12.343127,128,293.46933)" r="4.2188"><stop stop-color="#FFF" offset="0"/><stop stop-color="#FFF" stop-opacity="0" offset="1"/></radialGradient><filter id="filter4102" height="1.143004" width="1.2035852" y="-0.071501976" x="-0.1017926"><feGaussianBlur stdDeviation="0.35786462"/></filter><linearGradient id="linearGradient4179" y2="77.707" gradientUnits="userSpaceOnUse" y1="22.873" gradientTransform="matrix(1.0229652,0,0,1.0920256,-1.4644437,-1.8338916)" x2="72.923" x1="56.874"><stop stop-color="#FFF" offset="0"/><stop stop-color="#FFF" stop-opacity="0" offset="1"/></linearGradient><linearGradient id="linearGradient4199" y2="149.08" gradientUnits="userSpaceOnUse" y1="20.94" x2="82.169" x1="64.654"><stop stop-color="#ffc404" offset="0"/><stop stop-color="#ffc404" stop-opacity="0" offset="1"/></linearGradient><filter id="filter3274"><feGaussianBlur stdDeviation="1.4432763"/></filter><radialGradient id="radialGradient3326" gradientUnits="userSpaceOnUse" cy="25.957" cx="64.025" gradientTransform="matrix(1.4073524,-4.9145829e-2,3.3701767e-2,0.9650923,-26.955636,5.4114576)" r="52.025"><stop stop-color="#ea3b18" offset="0"/><stop stop-color="#ea3b18" stop-opacity="0" offset="1"/></radialGradient><linearGradient id="linearGradient3383" y2="46.196" gradientUnits="userSpaceOnUse" y1="82.806" x2="61.265" x1="85.398"><stop stop-color="#FFF" offset="0"/><stop stop-color="#FFF" stop-opacity="0" offset="1"/></linearGradient><linearGradient id="linearGradient3391" y2="105.41" gradientUnits="userSpaceOnUse" y1="35.312" x2="67.097" x1="67.097"><stop stop-color="#ac4311" offset="0"/><stop stop-color="#ea5418" offset="1"/></linearGradient><filter id="filter3396" height="1.0607916" width="1.2281187" y="-0.030395781" x="-0.11405937"><feGaussianBlur stdDeviation="0.8554453"/></filter><radialGradient id="radialGradient3406" xlink:href="#linearGradient3400" gradientUnits="userSpaceOnUse" cy="68.478" cx="63.75" gradientTransform="matrix(4.5093795,0,0,4.2142344,-223.72294,-220.10349)" r="9"/><radialGradient id="radialGradient3410" xlink:href="#linearGradient3400" gradientUnits="userSpaceOnUse" cy="74.356" cx="63.75" gradientTransform="matrix(4.5093795,0,0,1.3282315,-223.72294,-5.5119394)" r="9"/></defs><path stroke-linejoin="round" d="M63.595,15.807c-2.507,0.148-4.773,1.659-6.025,4.017l-40.779,76.319c-1.325,2.487-1.323,5.547,0.003,8.037s3.777,4.02,6.427,4.01h81.559c2.65,0.01,5.1-1.52,6.43-4.01,1.32-2.49,1.32-5.55,0-8.037l-40.78-76.319c-1.396-2.63-4.04-4.184-6.835-4.017z" fill-rule="evenodd" transform="matrix(1.0967227,0,0,1.1002593,-6.1902535,-2.2094077)" filter="url(#filter3274)" stroke="url(#linearGradient4199)" stroke-linecap="round" stroke-miterlimit="4" stroke-dasharray="none" stroke-width="1.82068181" fill="#ffc404"/><path d="M63.588,15.323c-2.705,0.161-5.152,1.804-6.502,4.368l-44.014,82.989c-1.43,2.71-1.429,6.04,0.003,8.74,1.431,2.71,4.076,4.37,6.936,4.37h88.029c2.86,0,5.5-1.66,6.94-4.37,1.43-2.7,1.43-6.03,0-8.74l-44.015-82.989c-1.507-2.86-4.36-4.55-7.377-4.368z" fill-rule="evenodd" fill="url(#linearGradient3857)"/><path opacity="0.36734694" d="M63.588,15.323c-2.705,0.161-5.152,1.804-6.502,4.368l-44.014,82.989c-1.43,2.71-1.429,6.04,0.003,8.74,1.431,2.71,4.076,4.37,6.936,4.37h88.029c2.86,0,5.5-1.66,6.94-4.37,1.43-2.7,1.43-6.03,0-8.74l-44.015-82.989c-1.507-2.86-4.36-4.55-7.377-4.368z" fill-rule="evenodd" fill="url(#radialGradient3326)"/><path opacity="0.92195123" d="M63.594,16c-1.389,0.082-2.705,0.603-3.813,1.438l4.219,10.562,4.219-10.562c-1.329-1.004-2.948-1.538-4.625-1.438z" fill-rule="evenodd" transform="matrix(1.0919838,0,0,1.0920256,-7.2516225,-2.1497485)" filter="url(#filter4102)" fill="url(#radialGradient4076)"/><path opacity="0.80102041" d="M25.324,102.68l-12.831,2.15c-0.529,2.2-0.257,4.57,0.819,6.59,1.443,2.7,4.114,4.37,6.996,4.37h2.832l2.184-13.11z" fill-rule="evenodd" fill="url(#radialGradient4062)"/><path opacity="0.71938776" d="M102.96,102.68l12.83,2.15c0.53,2.2,0.26,4.57-0.82,6.59-1.44,2.7-4.11,4.37-7,4.37h-2.83l-2.18-13.11z" fill-rule="evenodd" fill="url(#radialGradient4066)"/><path d="M63.781,20.007c-1.352,0.08-2.574,0.905-3.249,2.19l-43.996,83.233c-0.715,1.36-0.714,3.03,0.001,4.38,0.716,1.36,2.037,2.19,3.467,2.19h87.996c1.43,0,2.75-0.83,3.46-2.19,0.72-1.35,0.72-3.02,0-4.38l-43.992-83.233c-0.753-1.434-2.179-2.281-3.687-2.19z" fill-rule="evenodd" fill="url(#radialGradient3849)"/><path stroke-linejoin="miter" opacity="0.75" d="M63.406,36.719c-3.14,0.195-6.074,2.545-5.531,7.281l3.563,35.719c0.751-0.128,1.524-0.219,2.312-0.219,0.949,0,1.886,0.098,2.781,0.281l3.563-35.781c0.69-4.956-3.129-7.502-6.688-7.281z" filter="url(#filter3396)" stroke="url(#radialGradient3406)" stroke-linecap="butt" stroke-miterlimit="4" stroke-dasharray="none" stroke-width="4" fill="none"/><path stroke-linejoin="round" d="M63.781,20c-1.352,0.074-2.575,0.826-3.25,2l-44,76c-0.714,1.238-0.714,2.76,0.002,4,0.715,1.24,2.037,2,3.467,2h88c1.43,0,2.75-0.76,3.47-2,0.71-1.24,0.71-2.762,0-4l-44.001-76c-0.753-1.309-2.18-2.083-3.688-2z" transform="matrix(0.9982143,0,0,1.0992242,-0.2503837,-2.6968261)" filter="url(#filter3950)" stroke="url(#linearGradient3960)" stroke-linecap="round" stroke-miterlimit="4" stroke-dasharray="none" stroke-width="0.95465171" fill="none"/><path fill-rule="evenodd" fill="url(#linearGradient3977)" d="M63.386,19.691c-1.373,0.08-2.615,0.902-3.3,2.184l-25.985,48.288h0.031l25.954-47.026c0.685-1.249,1.927-2.037,3.3-2.115,1.531-0.089,2.979,0.722,3.744,2.115l25.223,45.661c0.01-0.002,0.022,0.002,0.032,0l-25.255-46.923c-0.765-1.43-2.213-2.275-3.744-2.184z"/><path stroke-linejoin="miter" opacity="0.75" d="M63.75,86.25c-3.864,0-7,3.136-7,7s3.136,7,7,7,7-3.136,7-7-3.136-7-7-7z" filter="url(#filter3396)" stroke="url(#radialGradient3410)" stroke-linecap="butt" stroke-miterlimit="4" stroke-dasharray="none" stroke-width="4" fill="none"/><path fill="url(#linearGradient3391)" d="M63.406,36.719c-3.14,0.195-6.074,2.545-5.531,7.281l3.563,35.719c0.751-0.128,1.524-0.219,2.312-0.219,0.949,0,1.886,0.098,2.781,0.281l3.563-35.781c0.69-4.956-3.129-7.502-6.688-7.281zm0.344,49.531c-3.864,0-7,3.136-7,7s3.136,7,7,7,7-3.136,7-7-3.136-7-7-7z"/><path opacity="0.86734697" d="M63.782,20.007c-1.383,0.08-2.635,0.902-3.325,2.184l-26.182,48.288c8.03,1.265,16.655,1.945,25.638,1.945,11.833,0,23.044-1.176,33.087-3.31l-25.446-46.923c-0.771-1.43-2.23-2.275-3.772-2.184z" fill-rule="evenodd" fill="url(#linearGradient4179)"/><path fill-rule="evenodd" fill="url(#linearGradient3383)" d="M64.344,20.031c1.208,0.18,2.284,0.945,2.906,2.094l24.875,45.625c-9.813,2.075-20.782,3.219-32.344,3.219-8.674,0-16.983-0.673-24.75-1.875l-0.75,1.375c8.03,1.265,16.641,1.969,25.625,1.969,11.833,0,23.051-1.179,33.094-3.313l-25.438-46.937c-0.674-1.252-1.895-2.036-3.218-2.157z"/></svg>