<?xml version="1.0" encoding="UTF-8" standalone="no"?><svg xmlns:rdf="http://www.w3.org/1999/02/22-rdf-syntax-ns#" xmlns="http://www.w3.org/2000/svg" height="128" width="128" version="1.0" xmlns:cc="http://creativecommons.org/ns#" xmlns:xlink="http://www.w3.org/1999/xlink" xmlns:dc="http://purl.org/dc/elements/1.1/"><defs><linearGradient id="linearGradient4338" x1="5.1935" xlink:href="#linearGradient4529" gradientUnits="userSpaceOnUse" x2="5.1935" gradientTransform="translate(-2.6296821,21.172877)" y1="88.987" y2="145.65"/><linearGradient id="linearGradient7698" x1="58.557" gradientUnits="userSpaceOnUse" x2="63.943" gradientTransform="matrix(1.0872079,0,0,1.0872079,-59.143229,30.210796)" y1="107.77" y2="107.77"><stop stop-color="#ffd700" offset="0"/><stop stop-color="#ffea00" offset="0.25243"/><stop stop-color="#b06d00" offset="1"/></linearGradient><linearGradient id="linearGradient6930" x1="8.3828" gradientUnits="userSpaceOnUse" x2="15.022" gradientTransform="matrix(1.2050468,0,0,1.2050468,-2.1016162,-2.0259658)" y1="8.32" y2="14.959"><stop stop-color="#FFF" stop-opacity="0.73885351" offset="0"/><stop stop-color="#FFF" stop-opacity="0" offset="0.25"/><stop stop-color="#CCC" stop-opacity="0" offset="0.5"/><stop stop-color="#9a9a9a" offset="1"/></linearGradient><linearGradient id="linearGradient4640" x1="9.3031" xlink:href="#linearGradient4529" gradientUnits="userSpaceOnUse" x2="-5.8541" y1="133.25" y2="130.59"/><filter id="filter4626" y="-0.10337079" width="1.2067416" x="-0.10337079" height="1.2067416"><feGaussianBlur stdDeviation="0.42488862"/></filter><clipPath id="clipPath4632" clipPathUnits="userSpaceOnUse"><rect opacity="0.83895" rx="0" ry="0" height="3.7416" filter="url(#filter4626)" width="13.334" y="130.97" x="-2.9264"/></clipPath><radialGradient id="radialGradient4602" xlink:href="#linearGradient4529" gradientUnits="userSpaceOnUse" cy="132.25" cx="4.7495" gradientTransform="matrix(1,0,0,0.3939752,0.4817163,48.449986)" r="5.3223"/><filter id="filter4584"><feGaussianBlur stdDeviation="1.0829419"/></filter><clipPath id="clipPath4588" clipPathUnits="userSpaceOnUse"><path d="M13.038,82.093l5.304,5.304c2.989,0.421,6.065,1.788,8.553,4.276,2.516,2.516,3.998,5.656,4.4,8.677l24.994,24.99c5.801,5.81,21.012-9.33,15.173-15.17l-24.994-24.993c-3.021-0.402-6.161-1.884-8.677-4.4-2.488-2.488-3.855-5.564-4.276-8.553l-5.304-5.304-15.173,15.173z"/></clipPath><filter id="filter4551"><feGaussianBlur stdDeviation="0.15501048"/></filter><linearGradient id="linearGradient4529"><stop stop-color="#FFF" offset="0"/><stop stop-color="#FFF" stop-opacity="0" offset="1"/></linearGradient><linearGradient id="linearGradient4525" x1="58.557" xlink:href="#linearGradient2575" gradientUnits="userSpaceOnUse" x2="63.943" gradientTransform="matrix(1.0872079,0,0,1.0872079,-71.164046,29.503688)" y1="107.77" y2="107.77"/><linearGradient id="linearGradient4515" y2="79.224" gradientUnits="userSpaceOnUse" x2="89.453" y1="85.084" x1="75.586"><stop stop-color="#ffe900" offset="0"/><stop stop-color="#ffe900" stop-opacity="0" offset="1"/></linearGradient><filter id="filter4501"><feGaussianBlur stdDeviation="0.48665741"/></filter><linearGradient id="linearGradient4471" x1="83.887" gradientUnits="userSpaceOnUse" x2="86.301" gradientTransform="translate(-4,-4)" y1="77.662" y2="86.671"><stop stop-color="#ffa300" offset="0"/><stop stop-color="#ffa300" stop-opacity="0" offset="1"/></linearGradient><radialGradient id="radialGradient4440" xlink:href="#linearGradient4529" gradientUnits="userSpaceOnUse" cy="132.25" cx="4.7495" gradientTransform="matrix(1,0,0,0.3939752,-7.0710881e-2,74.137847)" r="5.3223"/><filter id="filter4404"><feGaussianBlur stdDeviation="0.15249406"/></filter><linearGradient id="linearGradient4342" x1="3.5451" xlink:href="#linearGradient4529" gradientUnits="userSpaceOnUse" x2="3.1909" gradientTransform="translate(1.6836694,24.213436)" y1="107.64" y2="104.65"/><linearGradient id="linearGradient4346" x1="5.1935" xlink:href="#linearGradient4529" gradientUnits="userSpaceOnUse" x2="5.1348" gradientTransform="matrix(0.7071068,-0.7071068,0.7071068,0.7071068,-2.6879854,-4.0690534)" y1="103.95" y2="115.66"/><filter id="filter4238" y="-0.11235955" width="1.1498127" x="-0.074906364" height="1.224719"><feGaussianBlur stdDeviation="1.1235955"/></filter><clipPath id="clipPath4242" clipPathUnits="userSpaceOnUse"><path d="M-4,77.788v5.594c1.3542,1.798,2.255,4.14,2.255,6.764,0,2.653-0.8738,5.09-2.255,6.894v26.36c0,6.11,16,6.15,16,0v-26.36c-1.381-1.804-2.255-4.241-2.255-6.894,0-2.624,0.901-4.966,2.255-6.764v-5.594h-16z"/></clipPath><linearGradient id="linearGradient2575" gradientUnits="userSpaceOnUse" y1="57.5" x1="28" x2="28"><stop stop-color="#FFEA00" offset="0"/><stop stop-color="#cd8000" offset="1"/></linearGradient><linearGradient id="linearGradient4190" x1="36" xlink:href="#linearGradient2575" spreadMethod="reflect" gradientUnits="userSpaceOnUse" x2="28" gradientTransform="matrix(0.9483145,-0.9483145,0.9483145,0.9483145,-36.790528,30.877897)" y1="100" y2="100"/><linearGradient id="linearGradient6517" y2="-10.423" gradientUnits="userSpaceOnUse" x2="38.074" y1="4.2696" x1="38.074"><stop stop-color="#FFF" offset="0"/><stop stop-color="#393939" offset="1"/></linearGradient><linearGradient id="linearGradient3943" y2="-14.006" gradientUnits="userSpaceOnUse" x2="34.165" y1="4.863" x1="34.165"><stop stop-color="#d3d6d6" offset="0"/><stop stop-color="#f7f7f7" offset="1"/></linearGradient><linearGradient id="linearGradient6112" x1="38.828" xlink:href="#linearGradient3904" gradientUnits="userSpaceOnUse" x2="36.46" gradientTransform="matrix(1.1550511,0,0,1.1550511,-41.26484,21.101778)" y1="104.49" y2="17.51"/><filter id="filter3838" y="-0.075698018" width="1.5235449" x="-0.26177245" height="1.151396"><feGaussianBlur stdDeviation="0.41890191"/></filter><filter id="filter3834" y="-0.075698018" width="1.5235448" x="-0.26177242" height="1.151396"><feGaussianBlur stdDeviation="0.41890191"/></filter><clipPath id="clipPath3850" clipPathUnits="userSpaceOnUse"><path d="M5.6836-4c1.0837,3.861,2,8,2,12,0,17.928,8.0004,18.508,8.0004,0,0-4,0.59-8.4456,2-12-1.649-7.286-7.455-20.563-12,0z" fill="#b4b4b4"/></clipPath><linearGradient id="linearGradient3904"><stop stop-color="#141515" offset="0"/><stop stop-color="#535557" stop-opacity="0" offset="1"/></linearGradient><linearGradient id="linearGradient6119" x1="36.46" xlink:href="#linearGradient3904" gradientUnits="userSpaceOnUse" x2="39.504" gradientTransform="matrix(1.1550511,0,0,1.1550511,-40.633471,-152.2263)" y1="108.28" y2="69.417"/><linearGradient id="linearGradient6122" x1="36.46" gradientUnits="userSpaceOnUse" x2="36.46" gradientTransform="matrix(0.6737798,0,0,1.4175761,-25.92314,-147.94457)" y1="89.612" y2="17.51"><stop stop-color="#FFF" offset="0"/><stop stop-color="#FFF" stop-opacity="0" offset="1"/></linearGradient><linearGradient id="linearGradient6125" x1="32.228" spreadMethod="reflect" gradientUnits="userSpaceOnUse" x2="35.936" gradientTransform="matrix(0.8398488,-0.8398488,0.8167445,0.8167445,-15.712841,44.354581)" y1="48" y2="48"><stop stop-color="#535557" offset="0"/><stop stop-color="#898A8C" offset="0.13804"/><stop stop-color="#ECECEC" offset="0.20297"/><stop stop-color="#FAFAFA" offset="0.33539"/><stop stop-color="#FFF" offset="0.39464"/><stop stop-color="#FAFAFA" offset="0.5313"/><stop stop-color="#EBECEC" offset="0.8449"/><stop stop-color="#E1E2E3" offset="1"/></linearGradient><filter id="filter4503"><feGaussianBlur stdDeviation="0.43775175"/></filter><clipPath id="clipPath4092" clipPathUnits="userSpaceOnUse"><path d="M59.849,42.398c-2.256,4.589-49.132,63.862-51.075,68.672-4.104,10.15,7.657,22.36,17.215,13.2,6.302-6.04,40.97-68.159,46.14-72.855,3.494-3.174,22.875-10.332,22.875-10.332l-14.08-22.853s-18.2,18.322-21.075,24.168z" fill="#9c0f56"/></clipPath><linearGradient id="XMLID_4_" x1="40.528" gradientUnits="userSpaceOnUse" x2="52.982" gradientTransform="translate(-80,0)" y1="55.75" y2="64.646"><stop stop-color="#FFF" stop-opacity="0" offset="0"/><stop stop-color="#FFF" offset="0.8935"/></linearGradient><linearGradient id="linearGradient10549" x1="15.721" gradientUnits="userSpaceOnUse" x2="24.936" gradientTransform="translate(-80,0)" y1="125.79" y2="108.34"><stop stop-color="#000" offset="0"/><stop stop-color="#FFF" offset="0.8935"/></linearGradient><mask id="mask10545" maskUnits="userSpaceOnUse"><path d="M-0.051,18.554l-0.796-8.894s8.988-5.178,11.227-6.467c-6.395-3.983-14.034-2.123-14.121-2.1-7.162,1.903-12.167,7.772-12.167,14.129,0,0.239,0.007,0.479,0.021,0.718v0.002c0,0.357-0.363,20.788-3.366,26.896-1.081,2.198-11.148,15.342-22.805,30.562-12.137,15.847-27.242,35.57-28.24,38.04-0.541,1.34-0.781,2.69-0.781,4,0,3.78,2.019,7.22,4.596,9.18,0.4-0.7,0.828-1.44,1.286-2.23-1.823-1.29-3.266-3.32-3.698-5.61-0.396-2.09,0.064-4.3,1.264-6.05,1.171-1.72,2.972-2.87,5.07-3.27,1.626-0.3,3.379,0.13,4.94,1.22,0.193,0.14,0.376,0.29,0.558,0.44,10.748-16.887,29.125-43.77,60.258-85.296-1.872-3.04-3.246-5.27-3.246-5.27z" fill="url(#linearGradient10549)"/></mask><linearGradient id="linearGradient11382" x1="258.88" gradientUnits="userSpaceOnUse" x2="286.16" gradientTransform="matrix(0.9065,-0.2414,-0.2421,-0.9089,10.723991,214.40698)" y1="-326.09" y2="-287.65"><stop stop-color="#555" offset="0"/><stop stop-color="#888" offset="0.6864"/></linearGradient><linearGradient id="linearGradient11384" x1="92.628" gradientUnits="userSpaceOnUse" x2="104.53" gradientTransform="translate(229.83849,405.96228)" y1="26.589" y2="31.235"><stop stop-color="#FFF" offset="0"/><stop stop-color="#888" offset="0.6391"/></linearGradient><radialGradient id="radialGradient11386" gradientUnits="userSpaceOnUse" cy="4.7476" cx="172.12" gradientTransform="matrix(6.7917,-1.4855,-1.2014,-5.506,-845.12621,725.19548)" r="4.6967"><stop stop-color="#FFF" offset="0"/><stop stop-color="#3E3E3E" offset="1"/></radialGradient><linearGradient id="linearGradient11388" x1="14.921" gradientUnits="userSpaceOnUse" x2="107.75" gradientTransform="translate(229.83849,405.96228)" y1="124.68" y2="-17.99"><stop stop-color="#DDD" offset="0"/><stop stop-color="#888" offset="0.6864"/><stop stop-color="#DDD" offset="0.8935"/></linearGradient><linearGradient id="linearGradient11390" x1="77.04" xlink:href="#XMLID_4_" gradientUnits="userSpaceOnUse" x2="92.612" gradientTransform="translate(229.83849,405.96228)" y1="14.124" y2="4.8822"/><linearGradient id="linearGradient11392" x1="40.528" xlink:href="#XMLID_4_" gradientUnits="userSpaceOnUse" x2="52.982" gradientTransform="translate(-80,0)" y1="55.75" y2="64.646"/><radialGradient id="radialGradient11394" gradientUnits="userSpaceOnUse" cy="13.14" cx="77.004" gradientTransform="matrix(0.4337031,0.4442839,-0.7150071,0.6987259,282.84098,375.70944)" r="64.406"><stop stop-color="#FFF" offset="0"/><stop stop-color="#c3c4c2" offset="0.5"/><stop stop-color="#000" offset="1"/></radialGradient><linearGradient id="linearGradient11396" y2="30.555" gradientUnits="userSpaceOnUse" x2="73.449" y1="44.766" x1="77.217"><stop stop-color="#DDD" offset="0.7219"/><stop stop-color="#EEEEEC" offset="1"/></linearGradient><radialGradient id="radialGradient11398" gradientUnits="userSpaceOnUse" cy="44.608" cx="78.776" r="14.32"><stop stop-color="#2E3436" offset="0"/><stop stop-color="#000" offset="0.7219"/><stop stop-color="#2E3436" offset="1"/></radialGradient><radialGradient id="radialGradient11400" gradientUnits="userSpaceOnUse" cy="20.431" cx="92.734" gradientTransform="matrix(0.6131,-0.2916,-5.2659,-7.9645,125.0096,227.992)" r="4.1452"><stop stop-color="#FFF" offset="0"/><stop stop-color="#BABDB6" offset="0.5266"/><stop stop-color="#888A85" offset="1"/></radialGradient><radialGradient id="radialGradient11402" gradientUnits="userSpaceOnUse" cy="43.389" cx="292.49" gradientTransform="matrix(0.498,-0.2212,-2.9368,-8.3284,56.2613,466.2682)" r="6.8728"><stop stop-color="#888A85" offset="0"/><stop stop-color="#FFF" offset="0.6213"/><stop stop-color="#555753" offset="1"/></radialGradient><radialGradient id="radialGradient11404" gradientUnits="userSpaceOnUse" cy="36.07" cx="290.84" gradientTransform="matrix(0.4892,-0.2059,-2.5913,-7.0931,29.692,361.6149)" r="6.8736"><stop stop-color="#888A85" offset="0"/><stop stop-color="#FFF" offset="0.6213"/><stop stop-color="#555753" offset="1"/></radialGradient><radialGradient id="radialGradient11406" gradientUnits="userSpaceOnUse" cy="36.065" cx="274.57" gradientTransform="matrix(0.523,-0.2146,-2.627,-7.0521,27.4228,356.0237)" r="6.8733"><stop stop-color="#888A85" offset="0"/><stop stop-color="#FFF" offset="0.6213"/><stop stop-color="#555753" offset="1"/></radialGradient><linearGradient id="linearGradient11408" x1="247.6" gradientUnits="userSpaceOnUse" x2="261.97" gradientTransform="matrix(0.9428,-0.2511,-0.2421,-0.9089,6.0921912,215.38258)" y1="-288.61" y2="-288.61"><stop stop-color="#888" offset="0"/><stop stop-color="#555" offset="1"/></linearGradient><linearGradient id="linearGradient11410" x1="93.023" gradientUnits="userSpaceOnUse" x2="93.023" gradientTransform="translate(229.83849,405.96228)" y1="39.387" y2="25.929"><stop stop-color="#555" offset="0"/><stop stop-color="#888" offset="0.3965"/><stop stop-color="#555" offset="1"/></linearGradient><linearGradient id="linearGradient11412" x1="16.78" gradientUnits="userSpaceOnUse" x2="67.724" gradientTransform="translate(229.83849,405.96228)" y1="80.697" y2="80.697"><stop stop-color="#888" offset="0"/><stop stop-color="#DDD" offset="0.8935"/></linearGradient><linearGradient id="linearGradient11414" x1="40.712" gradientUnits="userSpaceOnUse" x2="48.55" gradientTransform="translate(229.83849,405.96228)" y1="75.172" y2="80.9"><stop stop-color="#555753" offset="0.213"/><stop stop-color="#000" offset="1"/></linearGradient><radialGradient id="radialGradient11416" gradientUnits="userSpaceOnUse" cy="15.943" cx="64.988" gradientTransform="translate(229.83849,405.96228)" r="19.618"><stop stop-color="#FFF" offset="0"/><stop stop-color="#888A85" offset="1"/></radialGradient><linearGradient id="linearGradient11418" x1="18.777" gradientUnits="userSpaceOnUse" x2="18.777" gradientTransform="translate(229.83849,405.96228)" y1="129.6" y2="114.61"><stop stop-color="#000" offset="0"/><stop stop-color="#000" stop-opacity="0" offset="1"/></linearGradient><linearGradient id="linearGradient11420" x1="17.509" gradientUnits="userSpaceOnUse" x2="18.876" gradientTransform="translate(229.83849,405.96228)" y1="123.23" y2="107.21"><stop stop-color="#EEE" offset="0"/><stop stop-color="#535353" offset="1"/></linearGradient><linearGradient id="linearGradient11422" x1="31.5" gradientUnits="userSpaceOnUse" x2="32.348" gradientTransform="translate(229.83849,405.96228)" y1="80.044" y2="80.672"><stop stop-color="#000" offset="0"/><stop stop-color="#000" stop-opacity="0" offset="1"/></linearGradient><linearGradient id="linearGradient11424" y2="44.058" gradientUnits="userSpaceOnUse" x2="98.418" y1="119.06" x1="11.918"><stop stop-color="#C9C9C9" offset="0"/><stop stop-color="#B2B2B2" offset="0.0229"/><stop stop-color="#9F9F9F" offset="0.05"/><stop stop-color="#929292" offset="0.0819"/><stop stop-color="#8A8A8A" offset="0.1225"/><stop stop-color="#888" offset="0.2012"/><stop stop-color="#686868" offset="1"/></linearGradient><filter id="filter11957"><feGaussianBlur stdDeviation="2.339831"/></filter><filter id="filter12490"><feGaussianBlur stdDeviation="2.3509538"/></filter></defs><path opacity="0.8" filter="url(#filter12490)" d="M97.469,6c-0.287,0.0094-0.461,0.0305-0.469,0.0312-8.498,0.7235-15.189,6.6188-16.031,13.907-0.006,0.032-4.101,20.919-8.094,26.374-3.133,4.283-61.741,56.408-64.594,60.968-1.8464,2.95-2.1892,6.37-1.4687,9.47,0.0023,0.01-0.0023,0.02,0,0.03,0.4657,1.99,1.3527,3.83,2.5937,5.34,0.0653,0.09,0.1517,0.15,0.2188,0.22,0.1135,0.14,0.2252,0.28,0.3438,0.41,0.1622,0.17,0.3282,0.34,0.5002,0.5,0.316,0.3,0.654,0.59,1,0.84,0.041,0.03,0.083,0.07,0.125,0.1,0.162,0.11,0.332,0.2,0.5,0.31,0.255,0.16,0.513,0.33,0.781,0.47,0.03,0.01,0.064,0.02,0.094,0.03,0.195,0.1,0.392,0.2,0.593,0.28,0.105,0.04,0.207,0.09,0.313,0.13,0.086,0.03,0.163,0.06,0.25,0.09,0.143,0.05,0.292,0.08,0.437,0.12,0.551,0.16,1.133,0.3,1.719,0.35,0.345,0.03,0.707,0.04,1.063,0.03,0.149,0,0.286-0.02,0.437-0.03,0.526-0.04,1.049-0.12,1.594-0.25,0.123-0.03,0.251-0.06,0.375-0.1,0.197-0.05,0.395-0.12,0.594-0.18,0.346-0.12,0.68-0.25,1.031-0.41,0.141-0.06,0.295-0.12,0.437-0.19,0.205-0.1,0.42-0.19,0.626-0.31,0.071-0.04,0.147-0.08,0.218-0.12,0.281-0.17,0.562-0.35,0.844-0.53,0.23-0.16,0.511-0.38,0.812-0.63,0.205-0.17,0.453-0.38,0.688-0.59,0.312-0.28,0.731-0.69,1.094-1.04,0.311-0.29,0.654-0.62,1-0.96,0.007-0.02,0.024-0.02,0.031-0.04,13.271-13.22,51.195-59.406,56.687-62.87,4.144-2.613,25.248-6.438,25.248-6.438,4.16-1.896,9.85-7.866,12.25-16.874,0.42-2.361,0.17-4.841,0.07-4.407l-12.79,5.75-8.37-6.719-1.439-3.656,0.5-6.187,14.059-5.25-0.22-1.813c-5.45-6.0692-13.641-6.2221-15.651-6.156zm-79.657,100.19c3.435-0.03,6.589,3.71,6.563,7.97-0.021,3.52-3.439,7.03-6.875,7.06s-6.765-3.82-6.812-7.69c-0.003-0.23-0.02-0.49,0-0.72,0.019-0.23,0.052-0.46,0.093-0.69,0.122-0.68,0.353-1.31,0.657-1.93,0.101-0.21,0.192-0.4,0.312-0.6,1.2-1.95,3.348-3.38,6.062-3.4z" fill="#000"/><g transform="matrix(1.0223499,0.1802679,-0.1801715,1.0218034,-142.50883,-466.04399)"><path d="M322.53,444.26c3.63-1.25,9.83-9.81,10.45-19.48,0.03-0.43,0.68,1.9,0.68,4.21-0.78,8.95-5.19,15.56-8.82,18.06l-2.31-2.79z" fill="url(#linearGradient11382)"/><path d="M332.98,424.78l-11.15,7.61-9.08-4.97c-0.67,1.46,3.2,20.56,7.48,19.54,7.82-1.86,11.93-11.17,12.75-22.18z" fill="#888a85"/><path enable-background="new    " d="M322.08,432.68l0.99,8.7,1.91,3.21c1.93-1.56,3.51-3.71,4.75-6.31,1.61-3.65,2.57-8.07,2.93-12.81l-10.58,7.21z" fill="url(#linearGradient11384)"/><path opacity="0.51380005" enable-background="new    " d="M313.6,428.19c-0.01,0.01-0.02,0.03-0.02,0.04-0.01,0.01-0.02,0.04-0.02,0.06-0.51,2.08,2.45,19.87,6.63,18.87,0.93-0.22,1.82-0.55,2.64-0.97l-2.25-14.24-6.98-3.76z" fill="url(#radialGradient11386)"/><path d="M305.84,406.09c-7.94,2.11-13.31,8.82-12.89,15.87,0,0.04-0.39,20.55-3.26,26.4-2.26,4.59-49.13,63.86-51.08,68.67-4.1,10.15,7.66,22.37,17.22,13.2,6.3-6.04,40.97-68.16,46.14-72.85,3.49-3.18,22.87-10.33,22.87-10.33l-14.08-22.86-0.72-8.02,12.12-6.98c-7.07-5.54-16.26-3.12-16.32-3.1zm-58.38,108.32c3.25-0.61,6.88,2.41,7.57,6.46,0.56,3.35-2.1,7.26-5.35,7.87-3.25,0.6-7.06-2.52-7.75-6.18-0.67-3.52,1.42-7.38,5.53-8.15z" fill="url(#linearGradient11388)"/><path fill="url(#linearGradient11392)" mask="url(#mask10545)" d="M-0.051,18.554l-0.796-8.894s8.988-5.178,11.227-6.467c-6.395-3.983-14.034-2.123-14.121-2.1-7.162,1.903-12.167,7.772-12.167,14.129,0,0.239,0.007,0.479,0.021,0.718v0.002c0,0.357-0.363,20.788-3.366,26.896-1.081,2.198-11.148,15.342-22.805,30.562-12.137,15.847-27.242,35.57-28.24,38.04-0.541,1.34-0.781,2.69-0.781,4,0,3.78,2.019,7.22,4.596,9.18,0.4-0.7,0.828-1.44,1.286-2.23-1.823-1.29-3.266-3.32-3.698-5.61-0.396-2.09,0.064-4.3,1.264-6.05,1.171-1.72,2.972-2.87,5.07-3.27,1.626-0.3,3.379,0.13,4.94,1.22,0.193,0.14,0.376,0.29,0.558,0.44,10.748-16.887,29.125-43.77,60.258-85.296-1.872-3.04-3.246-5.27-3.246-5.27z" transform="translate(309.83849,405.96228)"/><path d="M310.76,424.19l-0.72-8.02,12.12-6.98c-1.94-1.55-4.32-2.67-6.92-3.26-3.19-0.02-6.45,0.45-8.76,1.24-7.74,2.6-11.78,8.33-11.63,15.14l8.78,14.84,2.69-1.68,6.25,10.83-2.19,1.5,3.36,3.63,11.1-4.38-14.08-22.86z" fill="url(#radialGradient11394)"/><polygon points="65.82,36.446,76.487,27.791,85.179,40.128,72.511,46.783,65.82,36.446" transform="translate(229.83849,405.96228)" fill="url(#linearGradient11396)"/><polygon points="65.82,36.446,76.487,29.791,83.179,40.128,72.511,46.783,65.82,36.446" transform="translate(229.83849,405.96228)" fill="url(#radialGradient11398)"/><polygon points="68.311,35.653,74.616,32.078,80.237,40.809,73.932,44.384,68.311,35.653" transform="translate(229.83849,405.96228)" fill="url(#radialGradient11400)"/><polygon points="67.891,36.615,77.497,32.233,77.891,33.323,68.284,37.705,67.891,36.615" transform="translate(229.83849,405.96228)" fill="url(#radialGradient11402)"/><polygon points="72.212,42.972,81.653,38.899,82.001,39.827,72.56,43.9,72.212,42.972" transform="translate(229.83849,405.96228)" fill="url(#radialGradient11404)"/><polygon points="69.661,39.991,79.757,35.751,80.11,36.673,70.015,40.914,69.661,39.991" transform="translate(229.83849,405.96228)" fill="url(#radialGradient11406)"/><path d="M320.8,431.89c-0.04,0.27,1.3,8.03,1.38,8.3,0.67,4.27,1.65,4.41,1.86,5.16,0.72-0.41,0.25,0.05,0.88-0.5-0.11-0.37-1.43-2.85-1.96-3.74-0.25-2.13-1.03-8.11-1.1-8.67-0.4-0.23-0.56-0.31-1.06-0.55z" fill="url(#linearGradient11410)"/><path d="M246.62,511.93c4.81-1.91,11.26,3.37,10.92,9.18,3.28-3.8,39.34-60.77,39.91-63.37,0.86-3.96-3.27-6.92-6.55-4.85-2.29,1.44-44.59,59.16-44.28,59.04z" fill="url(#linearGradient11412)"/><path stroke="#000" d="M292.03,454.56c-2.5,2.36-25.18,33.05-41.37,55.22,1.36,0.3,2.72,0.89,3.98,1.8,1.74,1.26,3.03,2.93,3.87,4.75,8.76-12.91,35.56-55.53,36.99-59.08,0.04-0.19,0.06-0.38,0.06-0.56,0-0.83-0.37-1.57-1.06-2.05-0.76-0.53-1.67-0.55-2.47-0.08z" fill="url(#linearGradient11414)"/><path d="M294.94,422.47c-0.07,3.2-0.62,21.01-3.46,26.77-0.07,0.16-0.2,0.37-0.34,0.61,0.42-0.58,0.73-1.03,0.87-1.31,2.75-5.06,5.55-18.06,5.75-21.31l-2.82-4.76z" fill="url(#radialGradient11416)"/><path opacity="0.5" d="M258.69,526.59c0.56-1.5,0.76-3.1,0.49-4.62-0.58-3.15-2.56-6.1-5.31-7.88-2.17-1.42-4.63-1.98-6.9-1.58-2.93,0.51-5.45,2.01-7.08,4.24-1.44,1.95-2.11,4.34-1.93,6.69,1.37,7.91,10.31,14.04,17.87,6.79,0.66-0.63,1.64-1.89,2.86-3.64zm-9.01,2.15c-3.25,0.6-7.06-2.52-7.75-6.18-0.67-3.52,1.42-7.38,5.53-8.15,3.25-0.61,6.88,2.41,7.57,6.46,0.56,3.35-2.1,7.26-5.35,7.87z" fill="url(#linearGradient11418)"/><path d="M256.01,520.7c-0.41-2.42-1.83-4.68-3.79-6.06-1.56-1.08-3.32-1.52-4.94-1.21-2.1,0.39-3.9,1.55-5.07,3.26-1.2,1.75-1.66,3.96-1.27,6.06,0.81,4.28,5.15,7.67,8.92,6.97,3.76-0.7,6.81-5.16,6.15-9.02zm-6.33,8.04c-3.25,0.6-7.06-2.52-7.75-6.18-0.67-3.52,1.42-7.38,5.53-8.15,3.25-0.61,6.88,2.41,7.57,6.46,0.56,3.35-2.1,7.26-5.35,7.87z" fill="url(#linearGradient11420)"/><path opacity="0.4" d="M285.39,455.48c0.26-0.52,0.49-1.17,0.71-1.91-11.45,15.6-45.83,59.36-47.49,63.46-0.32,0.8-0.53,1.61-0.67,2.42,5.03-8.35,45.42-59.82,47.45-63.97z" fill="url(#linearGradient11422)"/><path d="M72.13,49.416c-5.17,4.696-39.838,66.814-46.14,72.854-7.9,7.57-17.295,0.54-18.004-7.86-0.779,9.21,9.482,18.03,18.004,9.86,6.302-6.04,40.97-68.158,46.14-72.854,3.494-3.174,22.875-10.332,22.875-10.332l-1.001-1.625c-3.999,1.506-18.857,7.215-21.874,9.957z" clip-path="url(#clipPath4092)" transform="translate(229.83849,405.96228)" filter="url(#filter4503)" fill="url(#linearGradient11424)"/><path d="M310.04,416.17l12.12-6.98,0.52,1.7-12.55,7.38-0.09-2.1z" fill="url(#linearGradient11408)"/><path d="M310.21,416.07l11.95-6.88c-0.52-0.41-1.05-0.76-1.59-1.08l-10.53,6.06,0.17,1.9z" fill="url(#linearGradient11390)"/></g><path opacity="0.80000000000000004" filter="url(#filter11957)" d="M10.375,9l-6.1562,6.469,4.9062,7.719c3.955,2.077,8.017,4.506,11.25,7.562l49.25,46.562-4.063,4.25,5.25,4.969c2.898,0.329,5.882,1.547,8.344,3.875,2.49,2.354,4.01,5.326,4.469,8.219l24.715,23.405c5.74,5.43,20.09-9.5,14.32-14.97l-24.754-23.372c-2.928-0.31-5.979-1.678-8.468-4.032-2.463-2.328-3.867-5.232-4.344-8.094l-5.25-4.968-4.063,4.25-49.25-46.563c-3.233-3.056-6.368-6.899-8.156-10.75l-8-4.531z" fill="#000"/><g transform="matrix(0.9660937,-2.5302336e-2,2.3546854e-2,0.9608617,2.3338765,6.1294086)"><path d="M1.7508,7.6731l4.9004,8.1669c4.0388,2.269,8.1678,4.901,11.435,8.168l85.214,85.212,6.54-6.53-85.22-85.216c-3.267-3.267-6.416-7.38-8.168-11.434l-8.1673-4.9005-6.5339,6.534z" fill="url(#linearGradient6125)"/><rect transform="matrix(0.7071068,-0.7071068,-0.7071068,-0.7071068,0,0)" height="98.672" width="1.1166" y="-123.12" x="-1.357" fill="url(#linearGradient6122)"/><rect opacity="0.38577" transform="matrix(-0.7071068,0.7071068,-0.7071068,-0.7071068,0,0)" height="63.509" width="1.602" y="-85.707" x="0.89395" fill="url(#linearGradient6119)"/><g clip-path="url(#clipPath3850)" transform="matrix(0.8167445,-0.8167445,0.8167445,0.8167445,5.2761549,23.749521)" fill-rule="evenodd"><path filter="url(#filter3834)" d="M4.2969-4.1289h1.3672c2.6562,3.8151,2.9346,7.9699,1.9531,12.305l-2.6367,0.9765-0.6836-13.281z" fill="#535557"/><path filter="url(#filter3838)" d="M18.977-4.1289h-1.367c-2.656,3.8151-2.935,7.9699-1.953,12.305l2.637,0.9765,0.683-13.281z" fill="#535557"/><path filter="url(#filter3838)" d="M18.977-4.1289l-0.745,0.069c-2.114,2.732-2.489,3.0001-2.368,8.9902l2.43,4.222,0.683-13.281z" fill="#000"/></g><rect transform="matrix(0.7071068,-0.7071068,0.7071068,0.7071068,0,0)" height="109.05" width="1.9142" y="41.332" x="0.84851" fill="url(#linearGradient6112)"/><path stroke-linejoin="round" d="M32-12l-2,8c4.144,12.201,8.116,9.0343,12,0l-2-8h-8z" stroke-dashoffset="1.08779998" transform="matrix(0.8167445,-0.8167445,0.8167445,0.8167445,-14.584136,43.609812)" stroke="url(#linearGradient6517)" stroke-linecap="round" stroke-miterlimit="4" stroke-dasharray="none" stroke-width="0.37" fill="url(#linearGradient3943)"/><path d="M63.53,78.093l5.304,5.304c2.99,0.421,6.065,1.788,8.553,4.276,2.516,2.516,3.998,5.656,4.4,8.677l24.993,24.99c5.8,5.81,21.01-9.33,15.17-15.17l-24.99-24.993c-3.021-0.402-6.161-1.884-8.677-4.4-2.488-2.488-3.855-5.564-4.276-8.553l-5.304-5.304-15.173,15.173z" fill="url(#linearGradient4190)"/><path d="M-8,120c9.7462,10.08,18.003,6.89,24,0l-4,16-28-8-4-16,12,8z" fill-rule="evenodd" clip-path="url(#clipPath4242)" transform="matrix(0.9483145,-0.9483145,0.9483145,0.9483145,-6.4444639,0.531831)" filter="url(#filter4238)" fill="#ffa700"/><rect opacity="0.48689" transform="matrix(0.7071068,-0.7071068,0.7071068,0.7071068,0,0)" height="1.1132" width="21.458" y="100.17" x="-10.297" fill="#ffa500"/><path opacity="0.83895126" d="M72.972,68.721l2.921-2.921,5.174,5.174c-0.146,0.591-0.245,1.191,0.513,1.963l-2.507,2.921c-0.701-0.466-1.076-1.061-0.858-1.894l-5.243-5.243z" fill="url(#linearGradient4346)"/><path opacity="0.74531836" d="M4.6714,129.88l2.6102-0.38c-0.0352,0.87-0.0231,1.3,0.5623,2.51h-2.7166c-0.3299-1.17-0.5237-1.51-0.4559-2.13z" transform="matrix(0.7071068,-0.7071068,0.7071068,0.7071068,-4,-4)" filter="url(#filter4404)" fill="url(#linearGradient4342)"/><rect transform="matrix(0.7071068,-0.7071068,0.7071068,0.7071068,0,0)" height="0.39062" width="10.645" y="126.05" x="-0.64348" fill="url(#radialGradient4440)"/><path filter="url(#filter4501)" fill="url(#linearGradient4471)" d="M83.598,68.531l-14.844,14.453c16.066,5.593,9.579-8.654,14.844-14.453z" fill-rule="evenodd"/><path d="M87.598,72.531l-14.844,14.453c16.066,5.593,9.579-8.654,14.844-14.453z" fill-rule="evenodd" transform="matrix(-1,0,0,-1,169.63281,168.51104)" filter="url(#filter4501)" fill="url(#linearGradient4515)"/><rect opacity="0.83895" rx="2.9279" ry="2.9279" transform="matrix(0.7071068,-0.7071068,0.7071068,0.7071068,0,0)" width="5.8559" y="132.03" x="-7.5001" height="29.279" fill="url(#linearGradient4525)"/><rect opacity="0.83895" ry="0.5577" rx="2.9279" transform="matrix(0.7071068,-0.7071068,0.7071068,0.7071068,-4,-4)" height="1.1049" filter="url(#filter4551)" width="11.601" y="130.97" x="-1.193" fill="url(#linearGradient4640)"/><path d="M13.831,81.094l-1.5,1.5,5.313,5.312c2.989,0.421,6.074,1.793,8.562,4.282,2.516,2.515,3.974,5.635,4.375,8.652l25,25c4.211,4.21,13.366-2.61,15.844-8.9-3.366,5.6-11.08,10.67-14.844,6.9l-25-24.996c-0.401-3.021-1.859-6.141-4.375-8.656-2.488-2.489-5.573-3.861-8.562-4.282l-4.813-4.812z" clip-path="url(#clipPath4588)" transform="translate(50.492188,-4.0046875)" filter="url(#filter4584)" fill="#996100"/><rect opacity="0.57678" transform="matrix(0.7071068,-0.7071068,0.7071068,0.7071068,0,0)" height="0.39062" width="10.645" y="100.36" x="-0.091057" fill="url(#radialGradient4602)"/><rect opacity="0.57678" transform="matrix(0.7071068,-0.7071068,0.7071068,0.7071068,-21.221011,-22.313001)" clip-path="url(#clipPath4632)" rx="0" ry="0" height="4.0531" filter="url(#filter4626)" width="12.602" y="129.59" x="-1.193" fill="url(#linearGradient4640)"/><rect opacity="0.57678" transform="matrix(0.7071068,-0.7071068,0.7071068,0.7071068,-21.321011,-22.413001)" clip-path="url(#clipPath4632)" rx="0" ry="0" height="1.7052" filter="url(#filter4626)" width="7.9066" y="130.08" x="3.1574" fill="url(#linearGradient4640)"/><path d="M2.9033,7.9724l4.2359,7.0596c11.539,5.688,12.108,0.649,8.4718-8.4716l-7.0598-4.2359-5.6479,5.6479z" fill="url(#linearGradient6930)"/><rect opacity="0.83895" rx="2.9279" ry="2.9279" transform="matrix(0.7071068,-0.7071068,0.7071068,0.7071068,0,0)" width="5.8559" y="132.74" x="4.5207" height="29.279" fill="url(#linearGradient7698)"/><rect opacity="0.95131" transform="matrix(0.7071068,-0.7071068,0.7071068,0.7071068,0,0)" height="38.179" width="2.5833" y="126.14" x="0.94721" fill="url(#linearGradient4338)"/></g></svg>