<?xml version="1.0" encoding="UTF-8" standalone="no"?><svg xmlns:rdf="http://www.w3.org/1999/02/22-rdf-syntax-ns#" xmlns="http://www.w3.org/2000/svg" version="1.0" space="preserve" viewBox="0 0 112 112" height="128" width="128" enable-background="new 0 0 112 112" y="0px" x="0px" xmlns:cc="http://creativecommons.org/ns#" xmlns:xlink="http://www.w3.org/1999/xlink" xmlns:dc="http://purl.org/dc/elements/1.1/"><defs><linearGradient id="linearGradient13107"><stop stop-color="#000" offset="0"/><stop stop-color="#000" stop-opacity="0" offset="1"/></linearGradient><filter id="filter4299"><feGaussianBlur stdDeviation="0.26962705"/></filter><linearGradient id="linearGradient9215" y2="113.63" xlink:href="#linearGradient4344" gradientUnits="userSpaceOnUse" y1="-4" x2="94.433" x1="75.196"/><filter id="filter12134"><feGaussianBlur stdDeviation="2.4"/></filter><linearGradient id="linearGradient13161" y2="-2.5102" xlink:href="#linearGradient13107" gradientUnits="userSpaceOnUse" y1="116" x2="48.326" x1="46.912"/><linearGradient id="linearGradient13221" y2="69.51" xlink:href="#SVGID_9_" gradientUnits="userSpaceOnUse" y1="13.143" gradientTransform="matrix(1.009217,0,0,0.9999274,-0.5151412,-5.9972184)" x2="70.239" x1="35.385"/><linearGradient id="linearGradient13223" y2="35.898" gradientUnits="userSpaceOnUse" y1="35.898" gradientTransform="matrix(1.0092222,0,0,0.9999326,-0.5151516,-5.9975816)" x2="110" x1="1.999"><stop stop-color="#FFF" stop-opacity="0" offset="0"/><stop stop-color="#FFF" stop-opacity="0.48453608" offset="1"/></linearGradient><linearGradient id="linearGradient13243" y2="-31.681" gradientUnits="userSpaceOnUse" y1="127.77" x2="58.967" x1="62.579"><stop stop-color="#00892C" offset="0"/><stop stop-color="#259E34" offset="0.0791"/><stop stop-color="#48B23B" offset="0.1681"/><stop stop-color="#61C041" offset="0.2522"/><stop stop-color="#71C944" offset="0.3286"/><stop stop-color="#71d73a" offset="0.3901"/><stop stop-color="#00892C" offset="1"/></linearGradient><linearGradient id="linearGradient13245" y2="55.862" xlink:href="#SVGID_9_" gradientUnits="userSpaceOnUse" y1="55.862" x2="110" x1="1.999"/><linearGradient id="linearGradient13247" y2="78.515" xlink:href="#SVGID_9_" gradientUnits="userSpaceOnUse" y1="107.83" x2="28.681" x1="23.533"/><linearGradient id="linearGradient13257" y2="95.814" xlink:href="#SVGID_9_" gradientUnits="userSpaceOnUse" y1="55.155" x2="94.442" x1="88.745"/><linearGradient id="linearGradient13259" y2="55.862" xlink:href="#SVGID_9_" gradientUnits="userSpaceOnUse" y1="86.705" x2="110" x1="63.871"/><linearGradient id="linearGradient13265" y2="26.164" xlink:href="#SVGID_9_" gradientUnits="userSpaceOnUse" y1="11.643" x2="80.8" x1="56.8"/><linearGradient id="linearGradient13267" y2="55.862" xlink:href="#SVGID_9_" gradientUnits="userSpaceOnUse" y1="18.385" x2="110" x1="45.84"/><linearGradient id="linearGradient13269" y2="26.322" xlink:href="#SVGID_9_" gradientUnits="userSpaceOnUse" y1="55.862" x2="89.845" x1="91.394"/><linearGradient id="linearGradient13271" y2="55.862" xlink:href="#SVGID_9_" gradientUnits="userSpaceOnUse" y1="21.023" x2="110" x1="63.871"/><filter id="filter18426"><feGaussianBlur stdDeviation="1.12"/></filter></defs><linearGradient id="SVGID_9_" y2="69.51" gradientUnits="userSpaceOnUse" y1="6.0723" x2="70.239" x1="29.021"><stop stop-color="#FFF" offset="0"/><stop stop-color="#FFF" stop-opacity="0" offset="1"/></linearGradient><g transform="matrix(0.875,0,0,0.875,6.9999998,7)"><g opacity="0.5" stroke-linejoin="round" transform="translate(0,-2)" filter="url(#filter12134)" stroke="url(#linearGradient13161)" stroke-miterlimit="4" stroke-dasharray="none" stroke-width="8" fill="#000"><path stroke-linejoin="round" stroke-dasharray="none" d="M63.718,0c7.514,0,14.727,0.652,18.282,6s-6.022,8.839-3.355,13.459c6.545,3.356,22.635,2.601,33.355,2.541v31.376c-5.79,3.336-11.91-1.445-17-2.376-9.605,4.274-9.652,27.515,0,31.68,5.72,0.45,5.42-5.031,12-3.72,5.01,6.734,5,33.04,5,33.04h-90s0.422-28.435-2.462-31.318-5.055,5.272-12.278,3.728c-4.317-2.065-7.26-5.805-7.26-16.41s2.812-15.29,7.068-17.684c6.567-1.386,7.631,7.063,11.11,3.584s3.892-19.074,3.822-31.9c10.448,0,23.674,2,30-3,0.428-5.335-3.801-5.305-4-10,1.149-6.096,8.22-8.778,15.718-9z" fill-rule="evenodd" stroke="url(#linearGradient13161)" clip-rule="evenodd" stroke-miterlimit="4" stroke-width="8" fill="#000"/></g><g stroke-linejoin="round" transform="translate(0,-4)" stroke="url(#linearGradient9215)" stroke-dasharray="none" stroke-miterlimit="4" stroke-width="8" fill="none"><linearGradient id="linearGradient4344" y2="144.48" gradientUnits="userSpaceOnUse" y1="5.7275" x2="126.74" x1="19.756"><stop stop-color="#64ba32" offset="0"/><stop stop-color="#00892C" stroke="url(#linearGradient9215)" offset="1"/></linearGradient><path stroke-linejoin="round" stroke-dasharray="none" d="M63.718,0c7.514,0,14.727,0.652,18.282,6s-6.022,8.839-3.355,13.459c6.545,3.356,22.635,2.601,33.355,2.541v31.376c-5.79,3.336-11.91-1.445-17-2.376-9.605,4.274-9.652,27.515,0,31.68,5.72,0.45,5.42-5.031,12-3.72,5.01,6.734,5,33.04,5,33.04h-90s0.422-28.435-2.462-31.318-5.055,5.272-12.278,3.728c-4.317-2.065-7.26-5.805-7.26-16.41s2.812-15.29,7.068-17.684c6.567-1.386,7.631,7.063,11.11,3.584s3.892-19.074,3.822-31.9c10.448,0,23.674,2,30-3,0.428-5.335-3.801-5.305-4-10,1.149-6.096,8.22-8.778,15.718-9z" clip-rule="evenodd" stroke-miterlimit="4" stroke-width="8" fill="none"/></g><g filter="url(#filter18426)" fill="url(#linearGradient13243)" transform="translate(0,-4)"><path d="M63.718,0c7.514,0,14.727,0.652,18.282,6s-6.022,8.839-3.355,13.459c6.545,3.356,22.635,2.601,33.355,2.541v31.376c-5.79,3.336-11.91-1.445-17-2.376-9.605,4.274-9.652,27.515,0,31.68,5.72,0.45,5.42-5.031,12-3.72,5.01,6.734,5,33.04,5,33.04h-90s0.422-28.435-2.462-31.318-5.055,5.272-12.278,3.728c-4.317-2.065-7.26-5.805-7.26-16.41s2.812-15.29,7.068-17.684c6.567-1.386,7.631,7.063,11.11,3.584s3.892-19.074,3.822-31.9c10.448,0,23.674,2,30-3,0.428-5.335-3.801-5.305-4-10,1.149-6.096,8.22-8.778,15.718-9z" fill-rule="evenodd" clip-rule="evenodd" fill="url(#linearGradient13243)"/></g><path d="M108.48,18.045h-0.02l-0.64,0.008c-2.3,0.031-4.71,0.062-7.14,0.062-11.816,0-18.831-0.886-22.746-2.876l-0.528-0.27-0.298-0.509c-1.802-3.095-0.197-5.6093,1.93-8.3561,1.401-1.8079,1.911-2.6008,1.991-3.4517,0.021-0.224,0.002-0.449-0.053-0.667-0.069-0.278-0.209-0.572-0.414-0.8779-2.84-4.2297-8.737-5.1017-16.783-5.1037-2.753,0.087-11.872,0.83-13.697,6.6816-0.098,0.3189-0.117,0.6589-0.051,0.9859,0.213,1.0419,0.779,1.7119,1.491,2.5588,1.227,1.4539,2.75,3.2658,2.456,6.9301l-0.069,0.868-0.691,0.541c-4.306,3.373-10.842,3.827-16.67,3.827-2.518,0-5.121-0.102-7.698-0.201-1.04-0.041-2.059-0.081-3.051-0.114-0.023,0-0.045-0.002-0.068-0.002-0.521,0-1.023,0.201-1.4,0.559-0.394,0.375-0.615,0.891-0.619,1.431-0.113,21.992-2.313,27.127-4.452,29.248-0.975,0.963-1.981,1.431-3.074,1.431-1.734,0-2.972-1.216-4.073-2.299l-0.194-0.188-0.372-0.36c-1.136-1.075-2.1173-1.739-3.4878-1.739-0.4007,0-0.8417,0.12-1.1768,0.342-3.6705,2.448-5.3801,7.371-5.3801,15.494,0,0.622,0.0111,1.215,0.0323,1.783,29.683,0.313,68.5-5.752,108.97-29.914v-13.821c0-0.534-0.22-1.046-0.6-1.423-0.38-0.369-0.89-0.578-1.42-0.578z" fill-rule="evenodd" stroke="url(#linearGradient13223)" clip-rule="evenodd" stroke-width="1.00456667" fill="url(#linearGradient13221)"/><g filter="url(#filter4299)" fill="url(#linearGradient13269)" transform="translate(0,-6)"><path d="M77.314,21.023c0.124,0.467,0.314,0.943,0.599,1.437l0.296,0.509,0.523,0.27c3.879,1.99,10.83,2.876,22.538,2.876,2.41,0,4.8-0.031,7.07-0.062l0.64-0.008h0.02c0.35,0,0.7,0.102,1,0.277v-0.277c0-0.534-0.22-1.046-0.6-1.423-0.37-0.369-0.88-0.578-1.4-0.578h-0.02l-0.64,0.008c-2.27,0.031-4.66,0.062-7.07,0.062-11.708,0-18.659-0.886-22.538-2.876l-0.418-0.215z" fill-rule="evenodd" clip-rule="evenodd" fill="url(#linearGradient13271)"/></g><g filter="url(#filter4299)" fill="url(#linearGradient13257)" transform="translate(2,-6)"><path d="M95.208,86.515l0.305,0.133,0.329,0.024c0.283,0.022,0.553,0.033,0.81,0.033,2.942,0,4.618-1.334,5.968-2.404,0.98-0.78,1.62-1.263,2.56-1.458,0.14-0.028,0.27-0.041,0.4-0.041,0.5,0,0.97,0.203,1.33,0.53-0.15-0.469-0.31-0.915-0.48-1.312-0.32-0.75-1.06-1.218-1.85-1.218-0.13,0-0.26,0.013-0.4,0.041-0.94,0.195-1.58,0.678-2.56,1.458-1.35,1.07-3.025,2.404-5.968,2.404-0.257,0-0.526-0.011-0.81-0.033l-0.329-0.024-0.305-0.133c-2.372-1.022-4.156-2.855-5.463-5.1,1.335,3.144,3.418,5.787,6.463,7.1z" fill-rule="evenodd" clip-rule="evenodd" fill="url(#linearGradient13259)"/></g><g filter="url(#filter4299)" fill="url(#linearGradient13245)" transform="translate(0,-6)"><path d="M2.999,70c0-8.123,1.694-13.047,5.328-15.497,0.332-0.222,0.769-0.342,1.166-0.342,1.358,0,2.33,0.665,3.456,1.739l0.369,0.36,0.192,0.188c1.091,1.083,2.317,2.299,4.036,2.299,1.083,0,2.079-0.469,3.046-1.432,2.119-2.12,4.299-7.255,4.411-29.249,0.004-0.54,0.224-1.056,0.613-1.431,0.375-0.358,0.872-0.559,1.387-0.559,0.023,0,0.045,0.002,0.068,0.002,0.983,0.033,1.992,0.073,3.023,0.114,2.553,0.1,5.133,0.201,7.628,0.201,5.773,0,12.25-0.454,16.517-3.827l0.685-0.541,0.068-0.868c0.208-2.619-0.505-4.284-1.372-5.556,0.316,0.961,0.487,2.11,0.372,3.556l-0.068,0.868-0.685,0.541c-4.266,3.373-10.743,3.827-16.517,3.827-2.495,0-5.075-0.102-7.628-0.201-1.031-0.041-2.04-0.081-3.023-0.114-0.023,0-0.045-0.002-0.068-0.002-0.516,0-1.013,0.201-1.387,0.559-0.39,0.375-0.609,0.891-0.613,1.431-0.112,21.994-2.292,27.129-4.411,29.25-0.967,0.963-1.963,1.431-3.046,1.431-1.719,0-2.945-1.216-4.036-2.299l-0.192-0.188-0.369-0.36c-1.126-1.075-2.098-1.739-3.456-1.739-0.397,0-0.834,0.12-1.166,0.342-3.634,2.45-5.328,7.374-5.328,15.497,0,5.927,0.972,9.338,2.33,11.438-0.809-2.117-1.33-5.104-1.33-9.438z" fill-rule="evenodd" clip-rule="evenodd" fill="url(#linearGradient13245)"/></g><g filter="url(#filter4299)" fill="url(#linearGradient13245)" transform="translate(-2,-4)"><path d="M22.022,81.343c1.04,3.152,2.095,10.352,2.019,26.647-0.002,0.53,0.207,1.04,0.582,1.42,0.125,0.12,0.269,0.22,0.419,0.31,0.083-21.548-1.822-27.049-3.02-28.377z" fill-rule="evenodd" clip-rule="evenodd" fill="url(#linearGradient13247)"/></g><g filter="url(#filter4299)" fill="url(#linearGradient13265)" transform="translate(0,-6)"><path d="M51.082,11.643c-0.06-0.319-0.043-0.648,0.052-0.959,1.808-5.852,10.845-6.595,13.572-6.682,7.497,0.002,13.11,0.774,16.094,4.385-0.006-0.135-0.021-0.271-0.054-0.402-0.068-0.278-0.207-0.572-0.41-0.878-2.814-4.23-8.658-5.102-16.63-5.104-2.728,0.087-11.764,0.83-13.572,6.682-0.097,0.319-0.116,0.659-0.05,0.986,0.161,0.79,0.523,1.369,0.998,1.972z" fill-rule="evenodd" clip-rule="evenodd" fill="url(#linearGradient13267)"/></g></g></svg>