<?xml version="1.0" encoding="UTF-8" standalone="no"?><svg xmlns:rdf="http://www.w3.org/1999/02/22-rdf-syntax-ns#" xmlns="http://www.w3.org/2000/svg" height="48px" width="48px" version="1.1" xmlns:cc="http://creativecommons.org/ns#" xmlns:xlink="http://www.w3.org/1999/xlink" xmlns:dc="http://purl.org/dc/elements/1.1/"><defs><linearGradient id="linearGradient5186"><stop stop-color="#000" offset="0"/><stop stop-color="#000" stop-opacity="0" offset="1"/></linearGradient><radialGradient id="radialGradient3884" gradientUnits="userSpaceOnUse" cy="9.3001" cx="11.004" gradientTransform="matrix(1.5405641,0,0,1.5392619,-4.0668303,-13.331411)" r="7.9645"><stop stop-color="#9c9e99" offset="0"/><stop stop-color="#868883" offset="1"/></radialGradient><linearGradient id="linearGradient3886" y2="24.067" gradientUnits="userSpaceOnUse" y1="5.2978" x2="10.365" x1="10.365"><stop stop-color="#FFF" offset="0"/><stop stop-color="#FFF" stop-opacity="0" offset="1"/></linearGradient><radialGradient id="radialGradient3888" gradientUnits="userSpaceOnUse" cy="8.0549" cx="16.502" gradientTransform="matrix(1.1574281,0,0,0.5826333,-2.5978912,8.124026)" r="10.111"><stop stop-color="#555753" offset="0"/><stop stop-color="#555753" stop-opacity="0" offset="1"/></radialGradient><radialGradient id="radialGradient2185" xlink:href="#linearGradient5186" gradientUnits="userSpaceOnUse" cy="17.625" cx="10.562" gradientTransform="matrix(0.9522895,0,0,0.3336489,0.5039423,11.744441)" r="8.5625"/><radialGradient id="radialGradient2189" xlink:href="#linearGradient5186" gradientUnits="userSpaceOnUse" cy="17.625" cx="10.562" gradientTransform="matrix(0.9642909,0,0,0.3378538,0.3771775,11.67033)" r="8.5625"/><radialGradient id="radialGradient2192" xlink:href="#linearGradient5186" gradientUnits="userSpaceOnUse" cy="17.625" cx="10.562" gradientTransform="matrix(1,0,0,0.350365,0,11.44982)" r="8.5625"/></defs><path opacity="0.09195401" style="marker-end:none;color:#000000;marker-start:none;marker-mid:none;" d="M19.125,17.625a8.5625,3,0,1,1,-17.125,0,8.5625,3,0,1,1,17.125,0z" fill-rule="nonzero" transform="matrix(2.5841197,0,0,1.3158205,-2.2947635,11.602319)" fill="url(#radialGradient2192)"/><path opacity="0.2030651" style="marker-end:none;color:#000000;marker-start:none;marker-mid:none;" d="M19.125,17.625a8.5625,3,0,1,1,-17.125,0,8.5625,3,0,1,1,17.125,0z" fill-rule="nonzero" transform="matrix(1.0510949,0,0,1.401731,2.89781,11.499684)" fill="url(#radialGradient2185)"/><path opacity="0.2030651" style="marker-end:none;color:#000000;marker-start:none;marker-mid:none;" d="M19.125,17.625a8.5625,3,0,1,1,-17.125,0,8.5625,3,0,1,1,17.125,0z" fill-rule="nonzero" transform="matrix(1.0510949,0,0,1.401731,23.89781,11.499684)" fill="url(#radialGradient2189)"/><g transform="matrix(1.2307692,0,0,1.2307692,3.222518,7.3727903)"><g transform="translate(4.5267189,9.405604)"><path stroke-linejoin="round" style="color:#000000;" d="M4.3116-7.9048c-1.1831-0.009-2.2648,0.7135-2.7128,1.8086-0.448,1.095-0.172,2.3421,0.6782,3.1649l6.5108,6.5108-6.5108,6.5105c-1.1362,1.136-1.1362,2.978,0,4.115,1.1362,1.136,2.9783,1.136,4.1144,0l6.5106-6.5111,6.511,6.5111c0.73,0.751,1.791,1.038,2.803,0.768s1.821-1.065,2.08-2.08c0.259-1.014-0.055-2.081-0.814-2.803l-6.511-6.5105,6.511-6.5108c0.857-0.8284,1.138-2.1107,0.678-3.2102-0.459-1.0994-1.566-1.7913-2.758-1.7633-0.755,0.0299-1.47,0.3545-1.989,0.9043l-6.511,6.5108-6.5106-6.5108c-0.5413-0.5718-1.2923-0.8984-2.0798-0.9043z" fill-rule="nonzero" stroke-dashoffset="0" stroke="#555753" stroke-linecap="round" stroke-miterlimit="4" stroke-dasharray="none" stroke-width="0.8125" fill="url(#radialGradient3884)"/></g><path opacity="0.36206898" stroke-linejoin="round" style="color:#000000;" d="M4.3125-7.0938c-0.8421-0.0064-1.6493,0.5318-1.9687,1.3126-0.3192,0.7802-0.1196,1.6504,0.5,2.25,0.0104-0.0002,0.0208-0.0002,0.0312,0l6.5,6.5312c0.1615,0.1553,0.2527,0.3697,0.2527,0.5938,0,0.224-0.0912,0.4384-0.2527,0.5937l-6.5,6.5005c-0.8196,0.819-0.8196,2.117,0,2.937s2.1179,0.82,2.9375,0l6.4995-6.5312c0.156-0.1615,0.37-0.2528,0.594-0.2528s0.439,0.0913,0.594,0.2528l6.5,6.5312v0.031c0.518,0.533,1.26,0.729,2,0.532,0.735-0.197,1.284-0.778,1.469-1.5,0.185-0.727-0.018-1.483-0.563-2h-0.031l-6.5-6.5005c-0.161-0.1553-0.253-0.3697-0.253-0.5937,0-0.2241,0.092-0.4385,0.253-0.5938l6.5-6.5312c0.01-0.0002,0.021-0.0002,0.031,0,0.616-0.596,0.824-1.5388,0.5-2.3126-0.326-0.7797-1.102-1.2703-1.968-1.25-0.54,0.0214-1.069,0.2661-1.438,0.6563v0.0313l-6.5,6.5c-0.155,0.16147-0.37,0.25271-0.594,0.25271s-0.438-0.09124-0.594-0.25271l-6.4995-6.5c-0.0002-0.0105-0.0002-0.0209,0-0.0313-0.3833-0.4049-0.9377-0.652-1.5-0.6563z" xlink:href="#path4262" transform="translate(4.5477906,9.4068256)" stroke-dashoffset="0" stroke="url(#linearGradient3886)" stroke-linecap="round" stroke-miterlimit="4" stroke-dasharray="none" stroke-width="0.8125" fill="none"/><path opacity="0.3" d="M14,13c4.243-1.237,3.154,0.133,6.912,0.133l6.911,6.911-3.823,2.956-6.499-6.556-6.501,6.335-3.3986-3.33,6.3986-6.449z" fill-rule="evenodd" fill="url(#radialGradient3888)"/></g></svg>